<?xml version="1.0" standalone="no"?>
<!DOCTYPE svg PUBLIC "-//W3C//DTD SVG 20010904//EN"
 "http://www.w3.org/TR/2001/REC-SVG-20010904/DTD/svg10.dtd">
<svg version="1.0" xmlns="http://www.w3.org/2000/svg"
 width="688.000000pt" height="674.000000pt" viewBox="0 0 688.000000 674.000000"
 preserveAspectRatio="xMidYMid meet">

<g transform="translate(0.000000,674.000000) scale(0.100000,-0.100000)"
fill="#000000" stroke="none">
<path d="M3410 6090 c0 -5 5 -10 11 -10 5 0 7 5 4 10 -3 6 -8 10 -11 10 -2 0
-4 -4 -4 -10z"/>
<path d="M3130 6060 c0 -5 5 -10 10 -10 6 0 10 5 10 10 0 6 -4 10 -10 10 -5 0
-10 -4 -10 -10z"/>
<path d="M2995 6050 c-3 -5 -1 -10 4 -10 6 0 11 5 11 10 0 6 -2 10 -4 10 -3 0
-8 -4 -11 -10z"/>
<path d="M2855 6030 c3 -5 8 -10 11 -10 2 0 4 5 4 10 0 6 -5 10 -11 10 -5 0
-7 -4 -4 -10z"/>
<path d="M3905 6000 c-3 -5 -1 -10 4 -10 6 0 11 5 11 10 0 6 -2 10 -4 10 -3 0
-8 -4 -11 -10z"/>
<path d="M3630 5970 c0 -5 5 -10 10 -10 6 0 10 5 10 10 0 6 -4 10 -10 10 -5 0
-10 -4 -10 -10z"/>
<path d="M3490 5960 c0 -5 5 -10 11 -10 5 0 7 5 4 10 -3 6 -8 10 -11 10 -2 0
-4 -4 -4 -10z"/>
<path d="M3350 5940 c0 -5 5 -10 10 -10 6 0 10 5 10 10 0 6 -4 10 -10 10 -5 0
-10 -4 -10 -10z"/>
<path d="M3210 5930 c0 -5 5 -10 10 -10 6 0 10 5 10 10 0 6 -4 10 -10 10 -5 0
-10 -4 -10 -10z"/>
<path d="M3076 5921 c-4 -5 -2 -12 3 -15 5 -4 12 -2 15 3 4 5 2 12 -3 15 -5 4
-12 2 -15 -3z"/>
<path d="M2940 5899 c0 -5 5 -7 10 -4 6 3 10 8 10 11 0 2 -4 4 -10 4 -5 0 -10
-5 -10 -11z"/>
<path d="M2800 5890 c0 -5 5 -10 10 -10 6 0 10 5 10 10 0 6 -4 10 -10 10 -5 0
-10 -4 -10 -10z"/>
<path d="M3990 5864 c0 -8 5 -12 10 -9 6 4 8 11 5 16 -9 14 -15 11 -15 -7z"/>
<path d="M2525 5860 c3 -5 8 -10 11 -10 2 0 4 5 4 10 0 6 -5 10 -11 10 -5 0
-7 -4 -4 -10z"/>
<path d="M2385 5850 c-3 -5 -1 -10 4 -10 6 0 11 5 11 10 0 6 -2 10 -4 10 -3 0
-8 -4 -11 -10z"/>
<path d="M3850 5850 c0 -5 5 -10 10 -10 6 0 10 5 10 10 0 6 -4 10 -10 10 -5 0
-10 -4 -10 -10z"/>
<path d="M3710 5840 c0 -5 5 -10 10 -10 6 0 10 5 10 10 0 6 -4 10 -10 10 -5 0
-10 -4 -10 -10z"/>
<path d="M3575 5829 c-10 -15 3 -25 16 -12 7 7 7 13 1 17 -6 3 -14 1 -17 -5z"/>
<path d="M3435 5819 c-10 -15 3 -25 16 -12 7 7 7 13 1 17 -6 3 -14 1 -17 -5z"/>
<path d="M3295 5801 c-6 -11 9 -23 19 -14 9 9 7 23 -3 23 -6 0 -12 -4 -16 -9z"/>
<path d="M3156 5792 c-3 -6 -1 -14 5 -17 15 -10 25 3 12 16 -7 7 -13 7 -17 1z"/>
<path d="M3020 5770 c0 -5 5 -10 10 -10 6 0 10 5 10 10 0 6 -4 10 -10 10 -5 0
-10 -4 -10 -10z"/>
<path d="M4485 5770 c3 -5 8 -10 11 -10 2 0 4 5 4 10 0 6 -5 10 -11 10 -5 0
-7 -4 -4 -10z"/>
<path d="M2882 5761 c4 -13 18 -16 19 -4 0 4 -5 9 -11 12 -7 2 -11 -2 -8 -8z"/>
<path d="M2745 5749 c-10 -15 3 -25 16 -12 7 7 7 13 1 17 -6 3 -14 1 -17 -5z"/>
<path d="M4206 5751 c-4 -5 -2 -12 3 -15 5 -4 12 -2 15 3 4 5 2 12 -3 15 -5 4
-12 2 -15 -3z"/>
<path d="M4070 5736 c0 -9 5 -16 10 -16 6 0 10 4 10 9 0 6 -4 13 -10 16 -5 3
-10 -1 -10 -9z"/>
<path d="M2600 5730 c0 -5 7 -10 15 -10 8 0 15 5 15 10 0 6 -7 10 -15 10 -8 0
-15 -4 -15 -10z"/>
<path d="M2466 5721 c-4 -5 -2 -12 3 -15 5 -4 12 -2 15 3 4 5 2 12 -3 15 -5 4
-12 2 -15 -3z"/>
<path d="M3930 5720 c0 -5 5 -10 10 -10 6 0 10 5 10 10 0 6 -4 10 -10 10 -5 0
-10 -4 -10 -10z"/>
<path d="M3792 5711 c4 -13 18 -16 19 -4 0 4 -5 9 -11 12 -7 2 -11 -2 -8 -8z"/>
<path d="M2330 5699 c0 -5 5 -7 10 -4 6 3 10 8 10 11 0 2 -4 4 -10 4 -5 0 -10
-5 -10 -11z"/>
<path d="M3656 5703 c-11 -11 -6 -23 9 -23 8 0 15 4 15 9 0 13 -16 22 -24 14z"/>
<path d="M2190 5690 c0 -5 5 -10 10 -10 6 0 10 5 10 10 0 6 -4 10 -10 10 -5 0
-10 -4 -10 -10z"/>
<path d="M3515 5690 c-4 -6 -3 -16 3 -22 6 -6 12 -6 17 2 4 6 3 16 -3 22 -6 6
-12 6 -17 -2z"/>
<path d="M2055 5680 c-3 -5 -1 -10 4 -10 6 0 11 5 11 10 0 6 -2 10 -4 10 -3 0
-8 -4 -11 -10z"/>
<path d="M3370 5664 c0 -9 7 -14 17 -12 25 5 28 28 4 28 -12 0 -21 -6 -21 -16z"/>
<path d="M3232 5653 c2 -10 10 -18 18 -18 8 0 16 8 18 18 2 12 -3 17 -18 17
-15 0 -20 -5 -18 -17z"/>
<path d="M3095 5651 c-8 -15 3 -31 21 -31 9 0 14 7 12 17 -4 20 -24 28 -33 14z"/>
<path d="M4570 5639 c0 -5 5 -7 10 -4 6 3 10 8 10 11 0 2 -4 4 -10 4 -5 0 -10
-5 -10 -11z"/>
<path d="M2957 5634 c-9 -10 2 -24 19 -24 8 0 14 7 14 15 0 15 -21 21 -33 9z"/>
<path d="M4430 5630 c0 -5 5 -10 10 -10 6 0 10 5 10 10 0 6 -4 10 -10 10 -5 0
-10 -4 -10 -10z"/>
<path d="M2825 5620 c-4 -6 -3 -16 3 -22 6 -6 12 -6 17 2 4 6 3 16 -3 22 -6 6
-12 6 -17 -2z"/>
<path d="M4290 5615 c0 -8 5 -15 10 -15 6 0 10 7 10 15 0 8 -4 15 -10 15 -5 0
-10 -7 -10 -15z"/>
<path d="M2685 5610 c-4 -6 -3 -16 3 -22 6 -6 12 -6 17 2 4 6 3 16 -3 22 -6 6
-12 6 -17 -2z"/>
<path d="M4155 5609 c-10 -15 3 -25 16 -12 7 7 7 13 1 17 -6 3 -14 1 -17 -5z"/>
<path d="M2547 5594 c-8 -8 1 -24 14 -24 5 0 9 7 9 15 0 15 -12 20 -23 9z"/>
<path d="M4012 5589 c2 -6 8 -10 13 -10 5 0 11 4 13 10 2 6 -4 11 -13 11 -9 0
-15 -5 -13 -11z"/>
<path d="M3870 5575 c0 -8 7 -15 15 -15 8 0 15 7 15 15 0 8 -7 15 -15 15 -8 0
-15 -7 -15 -15z"/>
<path d="M2410 5570 c0 -5 4 -10 9 -10 6 0 13 5 16 10 3 6 -1 10 -9 10 -9 0
-16 -4 -16 -10z"/>
<path d="M3730 5560 c0 -15 5 -20 18 -18 9 2 17 10 17 18 0 8 -8 16 -17 18
-13 2 -18 -3 -18 -18z"/>
<path d="M2270 5560 c0 -5 5 -10 10 -10 6 0 10 5 10 10 0 6 -4 10 -10 10 -5 0
-10 -4 -10 -10z"/>
<path d="M3590 5551 c0 -15 6 -21 21 -21 25 0 22 33 -4 38 -12 2 -17 -3 -17
-17z"/>
<path d="M2136 5551 c-4 -5 -2 -12 3 -15 5 -4 12 -2 15 3 4 5 2 12 -3 15 -5 4
-12 2 -15 -3z"/>
<path d="M3453 5544 c-8 -21 13 -42 28 -27 13 13 5 43 -11 43 -6 0 -13 -7 -17
-16z"/>
<path d="M2000 5529 c0 -5 5 -7 10 -4 6 3 10 8 10 11 0 2 -4 4 -10 4 -5 0 -10
-5 -10 -11z"/>
<path d="M3312 5523 c5 -26 38 -29 38 -4 0 15 -6 21 -21 21 -14 0 -19 -5 -17
-17z"/>
<path d="M1860 5520 c0 -5 5 -10 11 -10 5 0 7 5 4 10 -3 6 -8 10 -11 10 -2 0
-4 -4 -4 -10z"/>
<path d="M3173 5514 c-8 -22 18 -37 36 -20 7 8 10 19 7 25 -10 16 -36 13 -43
-5z"/>
<path d="M4790 5519 c0 -5 5 -7 10 -4 6 3 10 8 10 11 0 2 -4 4 -10 4 -5 0 -10
-5 -10 -11z"/>
<path d="M3034 5505 c-4 -9 -2 -21 4 -27 15 -15 44 -1 40 19 -4 23 -36 29 -44
8z"/>
<path d="M4650 5510 c0 -5 5 -10 10 -10 6 0 10 5 10 10 0 6 -4 10 -10 10 -5 0
-10 -4 -10 -10z"/>
<path d="M4510 5501 c0 -6 5 -13 10 -16 6 -3 10 1 10 9 0 9 -4 16 -10 16 -5 0
-10 -4 -10 -9z"/>
<path d="M2900 5480 c0 -13 7 -20 20 -20 13 0 20 7 20 20 0 13 -7 20 -20 20
-13 0 -20 -7 -20 -20z"/>
<path d="M4370 5485 c0 -9 5 -15 11 -13 6 2 11 8 11 13 0 5 -5 11 -11 13 -6 2
-11 -4 -11 -13z"/>
<path d="M2760 5471 c0 -15 6 -21 21 -21 25 0 22 33 -4 38 -12 2 -17 -3 -17
-17z"/>
<path d="M4230 5470 c0 -11 7 -20 15 -20 8 0 15 9 15 20 0 11 -7 20 -15 20 -8
0 -15 -9 -15 -20z"/>
<path d="M4090 5460 c0 -15 5 -20 18 -18 9 2 17 10 17 18 0 8 -8 16 -17 18
-13 2 -18 -3 -18 -18z"/>
<path d="M2622 5453 c2 -10 10 -18 18 -18 8 0 16 8 18 18 2 12 -3 17 -18 17
-15 0 -20 -5 -18 -17z"/>
<path d="M3957 5464 c-15 -15 -7 -45 11 -42 9 2 17 12 17 22 0 20 -16 31 -28
20z"/>
<path d="M2485 5450 c-8 -14 3 -30 21 -30 8 0 14 9 14 20 0 21 -24 28 -35 10z"/>
<path d="M2356 5443 c-12 -12 -6 -33 9 -33 8 0 15 6 15 14 0 17 -14 28 -24 19z"/>
<path d="M3810 5430 c0 -13 7 -20 20 -20 13 0 20 7 20 20 0 13 -7 20 -20 20
-13 0 -20 -7 -20 -20z"/>
<path d="M3672 5418 c4 -27 33 -36 42 -13 8 22 -1 35 -25 35 -15 0 -20 -6 -17
-22z"/>
<path d="M2216 5422 c-3 -6 -1 -14 5 -17 15 -10 25 3 12 16 -7 7 -13 7 -17 1z"/>
<path d="M3537 5424 c-4 -4 -7 -16 -7 -26 0 -14 6 -19 23 -16 14 2 22 10 22
23 0 20 -25 32 -38 19z"/>
<path d="M3394 5406 c-9 -24 4 -48 23 -44 12 2 18 12 18 28 0 29 -32 41 -41
16z"/>
<path d="M2075 5400 c-3 -5 1 -10 9 -10 9 0 16 5 16 10 0 6 -4 10 -9 10 -6 0
-13 -4 -16 -10z"/>
<path d="M1940 5391 c0 -6 5 -13 10 -16 6 -3 10 1 10 9 0 9 -4 16 -10 16 -5 0
-10 -4 -10 -9z"/>
<path d="M3254 5385 c-8 -20 4 -35 27 -35 14 0 19 7 19 25 0 18 -5 25 -20 25
-11 0 -23 -7 -26 -15z"/>
<path d="M4870 5390 c0 -5 5 -10 10 -10 6 0 10 5 10 10 0 6 -4 10 -10 10 -5 0
-10 -4 -10 -10z"/>
<path d="M3114 5375 c-8 -20 4 -35 26 -35 23 0 32 13 24 34 -8 20 -43 21 -50
1z"/>
<path d="M4730 5380 c0 -5 5 -10 10 -10 6 0 10 5 10 10 0 6 -4 10 -10 10 -5 0
-10 -4 -10 -10z"/>
<path d="M1805 5370 c3 -5 8 -10 11 -10 2 0 4 5 4 10 0 6 -5 10 -11 10 -5 0
-7 -4 -4 -10z"/>
<path d="M2980 5364 c-11 -12 -10 -18 3 -32 16 -15 18 -15 34 0 13 14 14 20 3
32 -7 9 -16 16 -20 16 -4 0 -13 -7 -20 -16z"/>
<path d="M4592 5371 c4 -13 18 -16 19 -4 0 4 -5 9 -11 12 -7 2 -11 -2 -8 -8z"/>
<path d="M4456 5363 c-11 -11 -6 -23 9 -23 8 0 15 4 15 9 0 13 -16 22 -24 14z"/>
<path d="M2840 5335 c0 -22 4 -26 23 -23 14 2 22 10 22 23 0 13 -8 21 -22 23
-19 3 -23 -1 -23 -23z"/>
<path d="M4310 5340 c0 -15 5 -20 18 -18 9 2 17 10 17 18 0 8 -8 16 -17 18
-13 2 -18 -3 -18 -18z"/>
<path d="M2707 5344 c-4 -4 -7 -16 -7 -26 0 -14 6 -19 23 -16 14 2 22 10 22
23 0 20 -25 32 -38 19z"/>
<path d="M4173 5334 c-8 -21 13 -42 28 -27 13 13 5 43 -11 43 -6 0 -13 -7 -17
-16z"/>
<path d="M4037 5334 c-16 -16 -7 -44 14 -44 15 0 20 5 17 22 -3 22 -19 33 -31
22z"/>
<path d="M2565 5321 c-9 -16 3 -31 26 -31 14 0 19 6 17 17 -4 20 -33 29 -43
14z"/>
<path d="M2433 5304 c-8 -21 13 -42 28 -27 13 13 5 43 -11 43 -6 0 -13 -7 -17
-16z"/>
<path d="M3892 5298 c2 -15 10 -23 23 -23 30 0 27 39 -3 43 -20 3 -23 0 -20
-20z"/>
<path d="M3750 5285 c0 -22 4 -26 23 -23 14 2 22 10 22 23 0 13 -8 21 -22 23
-19 3 -23 -1 -23 -23z"/>
<path d="M2292 5283 c2 -10 10 -18 18 -18 8 0 16 8 18 18 2 12 -3 17 -18 17
-15 0 -20 -5 -18 -17z"/>
<path d="M3614 5286 c-9 -24 4 -48 23 -44 12 2 18 12 18 28 0 29 -32 41 -41
16z"/>
<path d="M5230 5290 c0 -5 5 -10 11 -10 5 0 7 5 4 10 -3 6 -8 10 -11 10 -2 0
-4 -4 -4 -10z"/>
<path d="M2155 5281 c-8 -15 3 -31 21 -31 9 0 14 7 12 17 -4 20 -24 28 -33 14z"/>
<path d="M3474 5275 c-9 -23 3 -45 26 -45 25 0 37 25 20 45 -16 19 -39 19 -46
0z"/>
<path d="M3343 5273 c-19 -7 -16 -50 4 -57 24 -10 51 20 37 41 -12 19 -23 24
-41 16z"/>
<path d="M2020 5255 c0 -9 5 -15 11 -13 6 2 11 8 11 13 0 5 -5 11 -11 13 -6 2
-11 -4 -11 -13z"/>
<path d="M4950 5260 c0 -5 5 -10 10 -10 6 0 10 5 10 10 0 6 -4 10 -10 10 -5 0
-10 -4 -10 -10z"/>
<path d="M1886 5253 c-11 -11 -6 -23 9 -23 8 0 15 4 15 9 0 13 -16 22 -24 14z"/>
<path d="M3194 5246 c-10 -26 4 -48 28 -44 17 2 23 10 23 28 0 18 -6 26 -23
28 -13 2 -25 -3 -28 -12z"/>
<path d="M4812 5249 c2 -6 8 -10 13 -10 5 0 11 4 13 10 2 6 -4 11 -13 11 -9 0
-15 -5 -13 -11z"/>
<path d="M3060 5236 c-18 -22 -5 -46 25 -46 23 0 26 4 23 27 -3 32 -29 41 -48
19z"/>
<path d="M4677 5243 c-12 -11 -8 -23 8 -23 8 0 15 7 15 15 0 16 -12 20 -23 8z"/>
<path d="M1745 5230 c-3 -5 1 -10 10 -10 9 0 13 5 10 10 -3 6 -8 10 -10 10 -2
0 -7 -4 -10 -10z"/>
<path d="M2925 5226 c-20 -15 -15 -43 10 -52 18 -7 45 12 45 32 0 22 -35 35
-55 20z"/>
<path d="M4530 5220 c0 -15 5 -20 18 -18 9 2 17 10 17 18 0 8 -8 16 -17 18
-13 2 -18 -3 -18 -18z"/>
<path d="M4392 5208 c2 -13 10 -23 18 -23 8 0 16 10 18 23 3 17 -2 22 -18 22
-16 0 -21 -5 -18 -22z"/>
<path d="M2784 5205 c-8 -21 2 -45 19 -45 21 0 38 25 31 44 -8 20 -43 21 -50
1z"/>
<path d="M4257 5213 c-15 -14 -7 -43 12 -43 24 0 33 13 25 34 -6 16 -25 21
-37 9z"/>
<path d="M1475 5200 c3 -5 8 -10 11 -10 2 0 4 5 4 10 0 6 -5 10 -11 10 -5 0
-7 -4 -4 -10z"/>
<path d="M2652 5201 c-21 -13 -10 -46 16 -49 27 -4 40 22 22 43 -14 17 -20 18
-38 6z"/>
<path d="M4114 5196 c-9 -24 4 -48 23 -44 12 2 18 12 18 28 0 29 -32 41 -41
16z"/>
<path d="M3977 5194 c-4 -4 -7 -18 -7 -31 0 -18 5 -23 26 -23 22 0 25 4 22 27
-3 27 -26 41 -41 27z"/>
<path d="M2504 5175 c-4 -9 -2 -21 4 -27 16 -16 47 -5 47 17 0 26 -42 34 -51
10z"/>
<path d="M3836 5175 c-12 -12 -13 -21 -6 -36 13 -23 33 -25 51 -3 9 11 10 20
3 32 -15 23 -29 25 -48 7z"/>
<path d="M2377 5173 c-11 -10 -8 -41 4 -49 6 -3 18 1 27 9 13 13 13 19 2 31
-14 17 -23 20 -33 9z"/>
<path d="M3690 5140 c0 -28 3 -31 28 -28 21 2 27 8 27 28 0 20 -6 26 -27 28
-25 3 -28 0 -28 -28z"/>
<path d="M2234 5145 c-4 -9 -2 -21 4 -27 15 -15 44 -1 40 19 -4 23 -36 29 -44
8z"/>
<path d="M3554 5146 c-11 -29 0 -51 26 -51 21 0 25 5 25 30 0 24 -5 31 -23 33
-13 2 -24 -3 -28 -12z"/>
<path d="M2099 5134 c-9 -11 -9 -18 -1 -26 14 -14 42 -3 42 16 0 20 -27 27
-41 10z"/>
<path d="M3414 5136 c-11 -28 1 -51 28 -54 31 -4 48 29 28 53 -16 19 -49 19
-56 1z"/>
<path d="M5175 5140 c3 -5 8 -10 11 -10 2 0 4 5 4 10 0 6 -5 10 -11 10 -5 0
-7 -4 -4 -10z"/>
<path d="M3280 5125 c-26 -31 13 -82 44 -56 19 16 21 42 4 59 -16 16 -33 15
-48 -3z"/>
<path d="M5035 5130 c-3 -5 -1 -10 4 -10 6 0 11 5 11 10 0 6 -2 10 -4 10 -3 0
-8 -4 -11 -10z"/>
<path d="M1960 5110 c0 -15 5 -20 18 -18 9 2 17 10 17 18 0 8 -8 16 -17 18
-13 2 -18 -3 -18 -18z"/>
<path d="M4895 5121 c-6 -11 9 -23 19 -14 9 9 7 23 -3 23 -6 0 -12 -4 -16 -9z"/>
<path d="M3137 5114 c-4 -4 -7 -18 -7 -30 0 -17 7 -25 26 -30 31 -8 47 6 42
37 -2 17 -10 25 -28 27 -14 2 -29 0 -33 -4z"/>
<path d="M4755 5111 c-7 -12 12 -24 25 -16 11 7 4 25 -10 25 -5 0 -11 -4 -15
-9z"/>
<path d="M1825 5101 c-7 -12 12 -24 25 -16 11 7 4 25 -10 25 -5 0 -11 -4 -15
-9z"/>
<path d="M3000 5095 c-6 -8 -9 -23 -5 -35 10 -31 59 -24 63 9 6 37 -34 55 -58
26z"/>
<path d="M4617 5103 c-14 -13 -6 -33 13 -33 13 0 20 7 20 20 0 19 -20 27 -33
13z"/>
<path d="M1695 5089 c-10 -15 3 -25 16 -12 7 7 7 13 1 17 -6 3 -14 1 -17 -5z"/>
<path d="M4473 5084 c-3 -8 -1 -20 5 -26 15 -15 43 8 35 28 -7 19 -32 18 -40
-2z"/>
<path d="M2860 5060 c0 -28 3 -31 28 -28 21 2 27 8 27 28 0 20 -6 26 -27 28
-25 3 -28 0 -28 -28z"/>
<path d="M4337 5084 c-4 -4 -7 -16 -7 -26 0 -14 6 -19 23 -16 14 2 22 10 22
23 0 20 -25 32 -38 19z"/>
<path d="M1550 5070 c0 -5 5 -10 10 -10 6 0 10 5 10 10 0 6 -4 10 -10 10 -5 0
-10 -4 -10 -10z"/>
<path d="M2727 5074 c-13 -13 -7 -52 8 -58 27 -10 46 5 43 33 -3 26 -35 41
-51 25z"/>
<path d="M4194 5066 c-9 -24 4 -48 23 -44 12 2 18 12 18 28 0 29 -32 41 -41
16z"/>
<path d="M1415 5060 c-3 -5 -1 -10 4 -10 6 0 11 5 11 10 0 6 -2 10 -4 10 -3 0
-8 -4 -11 -10z"/>
<path d="M4057 5064 c-13 -14 -7 -52 10 -58 25 -10 51 20 37 42 -12 19 -36 27
-47 16z"/>
<path d="M2583 5044 c-3 -8 1 -23 10 -31 21 -21 47 -9 47 22 0 20 -5 25 -25
25 -14 0 -28 -7 -32 -16z"/>
<path d="M3922 5051 c-8 -4 -12 -19 -10 -32 2 -18 9 -24 28 -24 19 0 26 6 28
24 3 20 -11 41 -28 41 -3 0 -11 -4 -18 -9z"/>
<path d="M2454 5036 c-9 -24 4 -48 23 -44 12 2 18 12 18 28 0 29 -32 41 -41
16z"/>
<path d="M3766 5025 c-14 -37 33 -70 61 -42 24 23 8 57 -27 57 -15 0 -30 -7
-34 -15z"/>
<path d="M2314 5015 c-8 -20 4 -35 27 -35 14 0 19 7 19 25 0 18 -5 25 -20 25
-11 0 -23 -7 -26 -15z"/>
<path d="M3634 5016 c-12 -31 0 -51 31 -51 27 0 30 3 30 30 0 25 -4 30 -28 33
-17 2 -29 -2 -33 -12z"/>
<path d="M2181 5006 c-16 -19 -6 -36 20 -36 15 0 20 6 17 22 -4 27 -21 33 -37
14z"/>
<path d="M3497 5014 c-4 -4 -7 -20 -7 -35 0 -19 6 -30 20 -34 28 -9 52 13 48
44 -2 19 -9 27 -28 29 -14 2 -29 0 -33 -4z"/>
<path d="M5260 5009 c0 -5 5 -7 10 -4 6 3 10 8 10 11 0 2 -4 4 -10 4 -5 0 -10
-5 -10 -11z"/>
<path d="M3362 5001 c-8 -5 -12 -21 -10 -37 2 -21 9 -30 26 -32 44 -7 67 32
36 62 -17 18 -32 20 -52 7z"/>
<path d="M5115 5000 c-3 -5 1 -10 9 -10 9 0 16 5 16 10 0 6 -4 10 -9 10 -6 0
-13 -4 -16 -10z"/>
<path d="M2040 4980 c0 -13 7 -20 20 -20 13 0 20 7 20 20 0 13 -7 20 -20 20
-13 0 -20 -7 -20 -20z"/>
<path d="M4975 4991 c-7 -12 12 -24 25 -16 11 7 4 25 -10 25 -5 0 -11 -4 -15
-9z"/>
<path d="M1913 4983 c-18 -6 -16 -30 2 -37 9 -3 18 1 22 10 7 18 -7 33 -24 27z"/>
<path d="M3217 4983 c-14 -13 -6 -53 12 -63 36 -19 68 11 56 51 -6 19 -54 27
-68 12z"/>
<path d="M4832 4973 c2 -10 10 -18 18 -18 8 0 16 8 18 18 2 12 -3 17 -18 17
-15 0 -20 -5 -18 -17z"/>
<path d="M3080 4965 c-26 -32 13 -81 48 -59 34 22 22 74 -18 74 -10 0 -23 -7
-30 -15z"/>
<path d="M4693 4964 c-3 -8 -1 -20 6 -27 14 -14 47 15 37 32 -10 16 -36 13
-43 -5z"/>
<path d="M1775 4960 c-4 -6 -3 -16 3 -22 6 -6 12 -6 17 2 4 6 3 16 -3 22 -6 6
-12 6 -17 -2z"/>
<path d="M2942 4958 c-29 -29 -2 -72 40 -66 42 6 32 78 -11 78 -9 0 -22 -5
-29 -12z"/>
<path d="M4554 4955 c-4 -9 -2 -21 4 -27 15 -15 44 -1 40 19 -4 23 -36 29 -44
8z"/>
<path d="M4414 4945 c-8 -21 2 -45 19 -45 8 0 20 7 27 15 10 12 10 18 0 30 -7
8 -19 15 -27 15 -7 0 -16 -7 -19 -15z"/>
<path d="M1635 4941 c-6 -11 9 -23 19 -14 9 9 7 23 -3 23 -6 0 -12 -4 -16 -9z"/>
<path d="M2800 4930 c-15 -28 4 -52 39 -48 22 2 26 8 26 33 0 25 -4 31 -27 33
-19 2 -30 -3 -38 -18z"/>
<path d="M4277 4944 c-4 -4 -7 -18 -7 -31 0 -21 4 -24 28 -21 21 2 27 8 27 28
0 18 -6 26 -20 28 -12 2 -24 0 -28 -4z"/>
<path d="M1500 4924 c0 -8 5 -12 10 -9 6 4 8 11 5 16 -9 14 -15 11 -15 -7z"/>
<path d="M2672 4931 c-18 -11 -12 -51 10 -64 21 -14 48 7 48 38 0 30 -31 44
-58 26z"/>
<path d="M4134 4926 c-11 -29 0 -51 26 -51 21 0 25 5 25 30 0 24 -5 31 -23 33
-13 2 -24 -3 -28 -12z"/>
<path d="M3990 4911 c-13 -25 -4 -48 21 -56 38 -12 65 35 37 63 -18 18 -46 14
-58 -7z"/>
<path d="M1360 4910 c0 -5 5 -10 10 -10 6 0 10 5 10 10 0 6 -4 10 -10 10 -5 0
-10 -4 -10 -10z"/>
<path d="M2525 4899 c-9 -29 15 -53 44 -44 17 5 21 13 19 33 -4 36 -53 45 -63
11z"/>
<path d="M3856 4904 c-20 -19 -20 -38 -2 -54 23 -19 61 -8 64 18 7 44 -32 67
-62 36z"/>
<path d="M2394 4896 c-11 -29 1 -51 26 -51 19 0 26 6 28 24 5 35 -42 58 -54
27z"/>
<path d="M3717 4892 c-10 -10 -17 -24 -17 -30 0 -15 29 -42 45 -42 7 0 21 7
29 16 9 8 16 22 16 29 0 17 -27 45 -44 45 -7 0 -20 -8 -29 -18z"/>
<path d="M2254 4876 c-10 -26 4 -48 28 -44 17 2 23 10 23 28 0 18 -6 26 -23
28 -13 2 -25 -3 -28 -12z"/>
<path d="M3572 4878 c-28 -28 -6 -68 39 -68 30 0 45 26 34 60 -7 23 -53 28
-73 8z"/>
<path d="M5340 4880 c0 -5 5 -10 10 -10 6 0 10 5 10 10 0 6 -4 10 -10 10 -5 0
-10 -4 -10 -10z"/>
<path d="M2121 4866 c-17 -20 -2 -48 23 -44 24 3 34 37 14 49 -18 12 -24 11
-37 -5z"/>
<path d="M3428 4855 c-9 -21 -8 -28 7 -45 33 -37 75 -19 75 31 0 45 -63 56
-82 14z"/>
<path d="M5200 4870 c0 -5 5 -10 10 -10 6 0 10 5 10 10 0 6 -4 10 -10 10 -5 0
-10 -4 -10 -10z"/>
<path d="M3301 4856 c-7 -8 -11 -27 -9 -43 2 -23 8 -29 35 -31 27 -3 35 1 45
22 9 22 8 29 -7 46 -21 24 -48 26 -64 6z"/>
<path d="M5060 4855 c0 -9 5 -15 11 -13 6 2 11 8 11 13 0 5 -5 11 -11 13 -6 2
-11 -4 -11 -13z"/>
<path d="M1984 4845 c-4 -9 -2 -21 4 -27 15 -15 44 -1 40 19 -4 23 -36 29 -44
8z"/>
<path d="M4915 4850 c-8 -14 3 -30 21 -30 8 0 14 9 14 20 0 21 -24 28 -35 10z"/>
<path d="M3157 4843 c-16 -15 -6 -63 14 -73 41 -23 90 35 57 68 -13 13 -60 16
-71 5z"/>
<path d="M4774 4835 c-8 -19 12 -36 33 -28 19 7 12 37 -10 41 -9 2 -20 -4 -23
-13z"/>
<path d="M1845 4830 c-9 -15 4 -30 26 -30 12 0 19 7 19 20 0 21 -33 29 -45 10z"/>
<path d="M3022 4828 c-17 -17 -15 -53 3 -68 38 -31 96 27 65 65 -15 18 -51 20
-68 3z"/>
<path d="M4634 4826 c-8 -21 3 -36 27 -36 15 0 20 6 17 22 -4 27 -35 37 -44
14z"/>
<path d="M1717 4824 c-14 -15 -6 -34 14 -34 14 0 19 5 17 17 -3 18 -20 27 -31
17z"/>
<path d="M2886 4814 c-19 -18 -20 -28 -6 -55 19 -35 80 -18 80 22 0 21 -26 49
-45 49 -7 0 -21 -7 -29 -16z"/>
<path d="M4494 4815 c-9 -23 3 -45 25 -45 23 0 35 28 20 46 -15 18 -38 18 -45
-1z"/>
<path d="M4357 4814 c-13 -13 -7 -52 8 -58 27 -10 46 5 43 33 -3 26 -35 41
-51 25z"/>
<path d="M1575 4801 c-7 -12 12 -24 25 -16 11 7 4 25 -10 25 -5 0 -11 -4 -15
-9z"/>
<path d="M2744 4796 c-3 -8 -4 -25 -2 -38 2 -18 9 -23 32 -23 36 0 56 27 40
53 -14 22 -62 28 -70 8z"/>
<path d="M4222 4801 c-8 -4 -12 -19 -10 -32 4 -33 53 -40 63 -9 11 36 -22 61
-53 41z"/>
<path d="M2616 4787 c-11 -8 -17 -23 -14 -38 2 -19 10 -25 35 -27 28 -3 33 0
39 24 5 20 2 31 -11 41 -23 16 -27 16 -49 0z"/>
<path d="M4082 4791 c-8 -5 -12 -21 -10 -37 3 -25 7 -29 33 -29 26 0 30 4 33
29 3 27 -10 46 -33 46 -5 0 -16 -4 -23 -9z"/>
<path d="M1440 4780 c0 -5 5 -10 10 -10 6 0 10 5 10 10 0 6 -4 10 -10 10 -5 0
-10 -4 -10 -10z"/>
<path d="M3936 4774 c-9 -8 -16 -21 -16 -28 0 -15 32 -46 48 -46 15 0 42 29
42 45 0 7 -7 21 -16 29 -8 9 -22 16 -29 16 -7 0 -21 -7 -29 -16z"/>
<path d="M1306 4771 c-4 -5 -2 -12 3 -15 5 -4 12 -2 15 3 4 5 2 12 -3 15 -5 4
-12 2 -15 -3z"/>
<path d="M2471 4761 c-6 -11 -8 -27 -5 -35 8 -22 63 -21 71 0 15 40 -46 73
-66 35z"/>
<path d="M3795 4760 c-37 -41 24 -97 63 -58 18 18 14 56 -7 68 -27 14 -35 13
-56 -10z"/>
<path d="M3662 4754 c-27 -18 -28 -45 -4 -67 24 -22 45 -21 65 1 22 24 21 38
-3 62 -24 24 -29 24 -58 4z"/>
<path d="M2333 4744 c-6 -17 6 -45 23 -51 21 -7 47 23 40 45 -9 27 -53 30 -63
6z"/>
<path d="M5420 4750 c0 -5 5 -10 10 -10 6 0 10 5 10 10 0 6 -4 10 -10 10 -5 0
-10 -4 -10 -10z"/>
<path d="M2200 4736 c-27 -33 18 -72 48 -42 13 13 14 20 6 34 -15 23 -38 26
-54 8z"/>
<path d="M3509 4729 c-17 -33 3 -69 39 -69 33 0 52 16 52 45 0 29 -19 45 -52
45 -18 0 -31 -7 -39 -21z"/>
<path d="M5286 4741 c-4 -5 -2 -12 3 -15 5 -4 12 -2 15 3 4 5 2 12 -3 15 -5 4
-12 2 -15 -3z"/>
<path d="M3376 4724 c-22 -21 -20 -47 4 -69 44 -40 107 25 69 71 -15 19 -54
18 -73 -2z"/>
<path d="M5146 4733 c-11 -11 -6 -23 9 -23 8 0 15 4 15 9 0 13 -16 22 -24 14z"/>
<path d="M2064 4715 c-8 -21 2 -45 19 -45 21 0 38 25 31 44 -8 20 -43 21 -50
1z"/>
<path d="M3234 4705 c-15 -23 -15 -27 0 -50 10 -15 26 -25 41 -25 15 0 31 10
41 25 15 23 15 27 0 50 -10 15 -26 25 -41 25 -15 0 -31 -10 -41 -25z"/>
<path d="M5000 4710 c0 -15 5 -20 18 -18 9 2 17 10 17 18 0 8 -8 16 -17 18
-13 2 -18 -3 -18 -18z"/>
<path d="M3113 4710 c-46 -18 -24 -100 26 -100 16 0 51 38 51 55 0 16 -35 55
-47 54 -5 0 -18 -4 -30 -9z"/>
<path d="M4856 4711 c-10 -16 5 -42 23 -39 21 4 21 42 -1 46 -9 2 -19 -1 -22
-7z"/>
<path d="M1924 4699 c-8 -14 21 -43 35 -35 6 4 11 16 11 27 0 21 -34 27 -46 8z"/>
<path d="M4713 4694 c-3 -8 2 -23 11 -32 15 -15 17 -15 32 0 21 21 11 48 -16
48 -11 0 -23 -7 -27 -16z"/>
<path d="M1793 4684 c-8 -21 13 -42 28 -27 13 13 5 43 -11 43 -6 0 -13 -7 -17
-16z"/>
<path d="M2962 4688 c-28 -28 -3 -88 37 -88 10 0 26 9 36 20 27 30 10 74 -30
78 -17 2 -36 -3 -43 -10z"/>
<path d="M4574 4686 c-10 -26 4 -48 28 -44 17 2 23 10 23 28 0 18 -6 26 -23
28 -13 2 -25 -3 -28 -12z"/>
<path d="M2825 4670 c-24 -26 -13 -68 20 -76 35 -9 53 1 61 31 7 29 -18 65
-46 65 -9 0 -25 -9 -35 -20z"/>
<path d="M4434 4676 c-11 -28 1 -51 25 -51 32 0 49 28 32 49 -17 20 -50 21
-57 2z"/>
<path d="M1655 4670 c-8 -14 3 -30 21 -30 8 0 14 9 14 20 0 21 -24 28 -35 10z"/>
<path d="M4297 4674 c-15 -15 -7 -63 12 -69 33 -10 52 5 49 39 -2 25 -8 32
-28 34 -14 2 -29 0 -33 -4z"/>
<path d="M2692 4658 c-7 -7 -12 -25 -12 -40 0 -51 81 -50 88 1 7 42 -46 69
-76 39z"/>
<path d="M4150 4650 c-16 -30 4 -60 40 -60 23 0 31 5 36 25 4 15 1 32 -6 40
-18 21 -57 19 -70 -5z"/>
<path d="M1522 4649 c2 -6 8 -10 13 -10 5 0 11 4 13 10 2 6 -4 11 -13 11 -9 0
-15 -5 -13 -11z"/>
<path d="M4016 4644 c-19 -18 -20 -28 -6 -55 20 -36 80 -21 80 20 0 48 -42 68
-74 35z"/>
<path d="M1386 4641 c-4 -5 -2 -12 3 -15 5 -4 12 -2 15 3 4 5 2 12 -3 15 -5 4
-12 2 -15 -3z"/>
<path d="M2544 4625 c-8 -33 12 -57 44 -53 58 7 53 70 -6 76 -26 3 -32 -1 -38
-23z"/>
<path d="M3876 4634 c-9 -8 -16 -23 -16 -33 0 -22 30 -51 53 -51 21 0 47 27
47 50 0 10 -7 26 -16 34 -8 9 -24 16 -34 16 -10 0 -26 -7 -34 -16z"/>
<path d="M2422 4631 c-8 -5 -12 -21 -10 -37 2 -21 9 -30 26 -32 44 -7 67 32
36 62 -17 18 -32 20 -52 7z"/>
<path d="M3736 4624 c-19 -18 -21 -55 -4 -72 7 -7 24 -12 38 -12 34 0 50 17
50 52 0 43 -53 64 -84 32z"/>
<path d="M1250 4619 c0 -5 5 -7 10 -4 6 3 10 8 10 11 0 2 -4 4 -10 4 -5 0 -10
-5 -10 -11z"/>
<path d="M3597 4612 c-22 -24 -21 -55 1 -75 24 -22 55 -21 75 1 22 25 21 48
-3 72 -25 25 -52 26 -73 2z"/>
<path d="M5505 4620 c-3 -5 -1 -10 4 -10 6 0 11 5 11 10 0 6 -2 10 -4 10 -3 0
-8 -4 -11 -10z"/>
<path d="M2274 4606 c-12 -31 0 -51 30 -51 36 0 56 26 37 49 -17 20 -60 21
-67 2z"/>
<path d="M3460 4600 c-22 -22 -25 -42 -10 -71 12 -22 68 -27 88 -7 20 20 14
65 -10 82 -30 21 -44 20 -68 -4z"/>
<path d="M5366 4611 c-4 -5 -2 -12 3 -15 5 -4 12 -2 15 3 4 5 2 12 -3 15 -5 4
-12 2 -15 -3z"/>
<path d="M2146 4594 c-9 -8 -16 -18 -16 -22 1 -39 63 -42 68 -3 6 37 -26 52
-52 25z"/>
<path d="M5226 4603 c-11 -11 -6 -23 9 -23 8 0 15 4 15 9 0 13 -16 22 -24 14z"/>
<path d="M3316 4584 c-48 -47 14 -116 75 -84 22 12 27 68 7 88 -17 17 -64 15
-82 -4z"/>
<path d="M5087 4594 c-14 -15 -6 -34 14 -34 14 0 19 5 17 17 -3 18 -20 27 -31
17z"/>
<path d="M2004 4576 c-10 -26 4 -46 31 -46 23 0 26 4 23 28 -3 31 -44 45 -54
18z"/>
<path d="M3176 4568 c-21 -29 -20 -51 2 -71 26 -24 68 -21 86 5 21 30 20 44
-4 68 -27 27 -65 26 -84 -2z"/>
<path d="M4947 4584 c-16 -16 -7 -44 14 -44 15 0 20 5 17 22 -3 22 -19 33 -31
22z"/>
<path d="M3052 4565 c-30 -22 -30 -69 2 -90 48 -32 104 22 76 74 -6 12 -15 21
-20 21 -4 0 -14 2 -22 5 -7 3 -23 -2 -36 -10z"/>
<path d="M4807 4573 c-11 -10 -8 -41 4 -49 6 -3 18 1 27 9 13 13 13 19 2 31
-14 17 -23 20 -33 9z"/>
<path d="M1868 4558 c-9 -23 3 -38 29 -38 20 0 24 4 21 23 -3 25 -42 37 -50
15z"/>
<path d="M4661 4557 c-17 -21 -3 -47 26 -47 21 0 24 4 21 27 -3 31 -29 41 -47
20z"/>
<path d="M2906 4544 c-37 -37 -1 -103 49 -90 14 4 31 17 37 31 23 52 -46 100
-86 59z"/>
<path d="M4519 4544 c-17 -21 0 -49 32 -49 27 0 37 28 19 50 -16 19 -34 19
-51 -1z"/>
<path d="M1730 4530 c0 -15 7 -20 25 -20 18 0 25 5 25 20 0 15 -7 20 -25 20
-18 0 -25 -5 -25 -20z"/>
<path d="M4382 4538 c-23 -23 -7 -68 24 -68 14 0 44 27 44 40 0 13 -30 40 -44
40 -6 0 -17 -5 -24 -12z"/>
<path d="M1600 4521 c0 -15 6 -21 21 -21 25 0 22 33 -4 38 -12 2 -17 -3 -17
-17z"/>
<path d="M2758 4515 c-15 -32 12 -75 47 -75 35 0 62 43 47 75 -16 36 -78 36
-94 0z"/>
<path d="M4242 4528 c-34 -34 6 -90 48 -68 35 19 20 80 -20 80 -9 0 -21 -5
-28 -12z"/>
<path d="M2638 4519 c-29 -16 -23 -67 8 -81 33 -15 58 -1 62 36 6 47 -29 69
-70 45z"/>
<path d="M4101 4516 c-7 -8 -11 -27 -9 -43 2 -23 9 -29 33 -31 46 -6 71 40 39
72 -19 20 -48 20 -63 2z"/>
<path d="M1462 4503 c2 -10 10 -18 18 -18 22 0 18 29 -3 33 -14 3 -18 -1 -15
-15z"/>
<path d="M3955 4500 c-24 -27 -13 -68 22 -76 34 -9 57 6 61 40 6 53 -47 76
-83 36z"/>
<path d="M2490 4490 c-15 -29 -3 -59 26 -66 30 -8 54 11 54 40 0 46 -59 64
-80 26z"/>
<path d="M3817 4492 c-24 -27 -21 -59 8 -78 33 -21 72 -6 81 31 13 52 -53 86
-89 47z"/>
<path d="M1330 4490 c0 -5 5 -10 10 -10 6 0 10 5 10 10 0 6 -4 10 -10 10 -5 0
-10 -4 -10 -10z"/>
<path d="M3677 4482 c-35 -38 -13 -92 36 -92 40 0 57 15 57 51 0 53 -59 79
-93 41z"/>
<path d="M5590 4490 c0 -5 5 -10 11 -10 5 0 7 5 4 10 -3 6 -8 10 -11 10 -2 0
-4 -4 -4 -10z"/>
<path d="M1195 4481 c-3 -5 -1 -12 5 -16 5 -3 10 1 10 9 0 18 -6 21 -15 7z"/>
<path d="M2354 4476 c-9 -23 -1 -48 19 -60 25 -16 52 4 52 40 0 25 -4 29 -33
32 -22 2 -34 -2 -38 -12z"/>
<path d="M3542 4474 c-43 -30 -17 -104 36 -104 28 0 62 34 62 60 0 25 -34 60
-58 60 -10 0 -28 -7 -40 -16z"/>
<path d="M5446 4482 c-3 -6 -1 -14 5 -17 15 -10 25 3 12 16 -7 7 -13 7 -17 1z"/>
<path d="M2226 4465 c-19 -20 -20 -26 -3 -49 26 -36 84 4 61 42 -15 23 -38 26
-58 7z"/>
<path d="M3400 4460 c-41 -41 -16 -103 40 -103 37 0 60 23 60 60 0 28 -33 63
-60 63 -11 0 -29 -9 -40 -20z"/>
<path d="M1055 4460 c3 -5 8 -10 11 -10 2 0 4 5 4 10 0 6 -5 10 -11 10 -5 0
-7 -4 -4 -10z"/>
<path d="M5167 4464 c-14 -15 -6 -34 14 -34 14 0 19 5 17 17 -3 18 -20 27 -31
17z"/>
<path d="M5306 4461 c-3 -5 1 -11 9 -15 9 -3 15 0 15 9 0 16 -16 20 -24 6z"/>
<path d="M2087 4454 c-15 -16 -7 -53 14 -59 30 -10 58 19 43 43 -12 18 -45 28
-57 16z"/>
<path d="M3257 4442 c-10 -10 -17 -30 -17 -44 0 -51 69 -78 103 -40 20 22 22
73 5 90 -18 18 -73 14 -91 -6z"/>
<path d="M5027 4453 c-15 -14 -7 -43 12 -43 26 0 36 17 21 35 -14 16 -23 19
-33 8z"/>
<path d="M3120 4430 c-39 -39 -12 -100 44 -100 40 0 59 20 59 62 0 54 -63 78
-103 38z"/>
<path d="M4884 4436 c-9 -24 4 -48 23 -44 12 2 18 12 18 28 0 29 -32 41 -41
16z"/>
<path d="M1946 4424 c-7 -19 10 -44 29 -44 19 0 36 25 29 44 -3 9 -16 16 -29
16 -13 0 -26 -7 -29 -16z"/>
<path d="M2992 4424 c-44 -30 -18 -114 36 -114 18 0 62 46 62 65 0 19 -44 65
-62 65 -8 0 -24 -7 -36 -16z"/>
<path d="M4740 4426 c-27 -33 18 -72 48 -42 13 13 14 20 6 34 -15 23 -38 26
-54 8z"/>
<path d="M1822 4421 c-20 -12 -10 -46 13 -46 14 0 20 7 20 24 0 27 -13 35 -33
22z"/>
<path d="M4601 4416 c-21 -25 -4 -58 27 -54 23 2 27 8 27 33 0 23 -5 31 -21
33 -11 2 -26 -4 -33 -12z"/>
<path d="M2847 4402 c-36 -39 -7 -102 45 -102 24 0 58 35 58 60 0 27 -35 60
-63 60 -13 0 -31 -8 -40 -18z"/>
<path d="M4460 4405 c-26 -32 13 -81 48 -59 34 22 22 74 -18 74 -10 0 -23 -7
-30 -15z"/>
<path d="M1680 4384 c0 -33 33 -30 38 4 3 17 -2 22 -17 22 -16 0 -21 -6 -21
-26z"/>
<path d="M4322 4398 c-27 -27 -7 -78 29 -78 21 0 49 26 49 45 0 35 -53 58 -78
33z"/>
<path d="M2705 4380 c-22 -24 -14 -65 16 -81 52 -27 106 29 74 77 -19 30 -65
32 -90 4z"/>
<path d="M4174 4375 c-15 -23 -15 -27 0 -50 27 -42 86 -26 86 23 0 55 -56 72
-86 27z"/>
<path d="M1542 4373 c5 -26 38 -29 38 -4 0 15 -6 21 -21 21 -14 0 -19 -5 -17
-17z"/>
<path d="M2576 4374 c-31 -30 -10 -94 30 -94 34 0 54 20 54 55 0 50 -50 73
-84 39z"/>
<path d="M4037 4372 c-29 -32 -15 -73 30 -87 26 -7 63 24 63 54 0 46 -62 67
-93 33z"/>
<path d="M3896 4364 c-36 -35 -9 -94 43 -94 35 0 51 17 51 55 0 17 -5 36 -12
43 -17 17 -64 15 -82 -4z"/>
<path d="M1412 4359 c2 -6 8 -10 13 -10 5 0 11 4 13 10 2 6 -4 11 -13 11 -9 0
-15 -5 -13 -11z"/>
<path d="M2435 4350 c-15 -17 -16 -24 -7 -45 15 -32 37 -41 68 -27 17 8 24 20
24 40 0 52 -50 71 -85 32z"/>
<path d="M3756 4354 c-22 -21 -20 -67 2 -87 40 -36 102 -9 102 45 0 49 -69 78
-104 42z"/>
<path d="M1276 4351 c-4 -5 -2 -12 3 -15 5 -4 12 -2 15 3 4 5 2 12 -3 15 -5 4
-12 2 -15 -3z"/>
<path d="M3617 4342 c-44 -49 1 -127 61 -106 37 13 57 56 41 86 -7 13 -17 26
-23 30 -20 14 -63 8 -79 -10z"/>
<path d="M2302 4338 c-32 -32 4 -87 48 -73 25 8 37 50 20 70 -15 18 -51 20
-68 3z"/>
<path d="M3477 4332 c-10 -10 -17 -25 -17 -32 0 -7 -11 -1 -25 14 -13 14 -35
26 -47 26 -30 0 -68 -26 -68 -47 0 -14 -4 -13 -20 5 -37 39 -120 20 -120 -28
0 -7 -9 -1 -21 14 -55 69 -154 -9 -103 -82 28 -40 114 -22 114 25 0 12 7 9 25
-11 15 -16 35 -26 53 -26 30 0 62 26 62 50 0 7 11 1 25 -14 14 -15 35 -26 50
-26 28 0 65 32 65 56 0 12 6 10 21 -10 40 -51 119 -24 119 41 0 53 -78 84
-113 45z"/>
<path d="M5530 4340 c0 -5 5 -10 10 -10 6 0 10 5 10 10 0 6 -4 10 -10 10 -5 0
-10 -4 -10 -10z"/>
<path d="M1140 4329 c0 -5 5 -7 10 -4 6 3 10 8 10 11 0 2 -4 4 -10 4 -5 0 -10
-5 -10 -11z"/>
<path d="M2176 4328 c-20 -11 -21 -51 -1 -68 17 -14 51 -5 59 17 15 38 -22 71
-58 51z"/>
<path d="M5392 4331 c4 -13 18 -16 19 -4 0 4 -5 9 -11 12 -7 2 -11 -2 -8 -8z"/>
<path d="M1000 4320 c0 -5 5 -10 11 -10 5 0 7 5 4 10 -3 6 -8 10 -11 10 -2 0
-4 -4 -4 -10z"/>
<path d="M5250 4315 c0 -9 5 -15 11 -13 6 2 11 8 11 13 0 5 -5 11 -11 13 -6 2
-11 -4 -11 -13z"/>
<path d="M2032 4308 c-23 -23 -7 -68 24 -68 14 0 44 27 44 40 0 13 -30 40 -44
40 -6 0 -17 -5 -24 -12z"/>
<path d="M5105 4310 c-4 -7 -3 -16 3 -22 14 -14 45 -2 40 15 -6 16 -34 21 -43
7z"/>
<path d="M4963 4294 c-3 -8 -1 -20 5 -26 16 -16 42 -2 42 22 0 24 -38 28 -47
4z"/>
<path d="M1897 4294 c-13 -13 -7 -52 8 -58 27 -10 46 5 43 33 -3 26 -35 41
-51 25z"/>
<path d="M4823 4284 c-3 -8 2 -23 11 -32 15 -15 17 -15 32 0 21 21 11 48 -16
48 -11 0 -23 -7 -27 -16z"/>
<path d="M2926 4274 c-9 -8 -16 -28 -16 -44 0 -36 24 -60 60 -60 36 0 60 24
60 60 0 16 -7 36 -16 44 -8 9 -28 16 -44 16 -16 0 -36 -7 -44 -16z"/>
<path d="M4684 4275 c-10 -25 4 -45 31 -45 21 0 25 5 25 30 0 25 -4 30 -25 30
-14 0 -28 -7 -31 -15z"/>
<path d="M1754 4265 c-4 -9 0 -23 8 -31 20 -20 50 -7 46 20 -4 26 -45 35 -54
11z"/>
<path d="M2790 4260 c-41 -41 -13 -100 48 -100 52 0 73 74 30 104 -30 21 -54
20 -78 -4z"/>
<path d="M4406 4264 c-32 -32 -6 -81 37 -70 34 8 44 41 21 67 -21 23 -37 24
-58 3z"/>
<path d="M4541 4262 c-14 -27 8 -55 40 -50 19 2 24 9 24 33 0 25 -4 31 -27 33
-18 2 -30 -3 -37 -16z"/>
<path d="M1627 4263 c-22 -21 2 -56 31 -46 17 7 15 40 -4 47 -19 7 -19 7 -27
-1z"/>
<path d="M4266 4254 c-9 -8 -16 -24 -16 -34 0 -20 25 -50 41 -50 27 0 49 22
49 50 0 44 -44 64 -74 34z"/>
<path d="M2656 4244 c-19 -18 -21 -65 -4 -82 20 -20 76 -15 88 7 32 61 -37
123 -84 75z"/>
<path d="M4128 4249 c-18 -10 -24 -55 -10 -75 14 -20 45 -25 68 -9 29 19 31
55 6 78 -21 19 -39 21 -64 6z"/>
<path d="M1484 4239 c-3 -6 0 -17 7 -25 18 -17 44 -2 36 20 -7 18 -33 21 -43
5z"/>
<path d="M3976 4228 c-21 -29 -20 -51 2 -71 24 -22 65 -21 85 1 22 25 21 48
-3 72 -27 27 -65 26 -84 -2z"/>
<path d="M2516 4224 c-34 -34 -11 -84 39 -84 35 0 55 20 55 54 0 22 -28 46
-55 46 -13 0 -31 -7 -39 -16z"/>
<path d="M3836 4218 c-32 -46 -7 -98 47 -98 33 0 57 24 57 59 0 56 -73 83
-104 39z"/>
<path d="M1350 4215 c0 -10 7 -15 18 -13 21 4 19 22 -2 26 -10 2 -16 -3 -16
-13z"/>
<path d="M3697 4212 c-10 -10 -17 -24 -17 -32 0 -7 -9 -1 -21 14 -28 35 -80
36 -107 1 -19 -24 -20 -24 -37 -5 -24 27 -70 25 -98 -2 -21 -22 -23 -22 -40
-5 -24 24 -73 22 -101 -6 -23 -23 -24 -23 -46 -5 -30 24 -53 23 -87 -6 -25
-21 -31 -22 -48 -10 -29 21 -66 17 -95 -11 -24 -23 -28 -24 -40 -10 -16 20
-74 19 -94 -1 -9 -8 -16 -25 -16 -37 -1 -21 -2 -20 -15 4 -20 37 -61 46 -94
21 -32 -23 -38 -55 -17 -88 29 -43 115 -23 116 27 0 9 5 7 12 -6 16 -28 28
-35 65 -35 22 0 38 8 50 24 17 21 21 22 29 9 5 -9 26 -18 46 -22 29 -5 35 -9
29 -20 -7 -11 -13 -11 -32 3 -33 23 -66 20 -96 -10 -23 -23 -27 -24 -42 -10
-36 33 -111 5 -111 -40 0 -12 -6 -10 -21 10 -41 52 -114 22 -107 -45 4 -47 46
-71 85 -49 15 8 30 26 34 40 4 14 7 20 8 13 2 -21 43 -53 68 -53 13 0 35 11
48 24 20 20 26 22 36 10 9 -11 8 -14 -4 -14 -9 0 -28 -11 -44 -24 -25 -21 -31
-22 -48 -10 -30 22 -64 17 -93 -14 -26 -27 -28 -27 -44 -10 -39 39 -108 7
-108 -50 0 -62 80 -85 119 -36 12 15 21 22 21 16 0 -7 11 -19 25 -28 29 -19
66 -13 93 17 17 17 20 18 25 5 4 -10 1 -16 -9 -16 -8 0 -26 -11 -40 -25 -23
-23 -27 -24 -47 -10 -70 49 -148 -46 -85 -105 29 -26 63 -25 92 3 23 23 24 23
46 5 l22 -18 -35 0 c-26 0 -41 -7 -55 -25 -17 -21 -21 -23 -32 -10 -13 16 -67
20 -86 7 -6 -4 -17 -18 -23 -30 l-13 -24 -14 21 c-31 44 -114 17 -114 -37 0
-66 98 -84 121 -23 10 25 11 25 21 6 6 -11 16 -23 22 -27 21 -15 66 -8 87 13
19 19 22 19 38 5 23 -21 80 -20 103 1 14 13 21 14 30 5 9 -9 7 -12 -9 -12 -12
0 -32 -12 -45 -28 -22 -26 -24 -26 -40 -10 -23 23 -70 23 -91 0 -22 -25 -21
-75 1 -95 28 -25 77 -22 99 7 19 23 20 23 31 5 16 -26 79 -26 106 0 18 16 23
17 34 5 11 -12 9 -14 -10 -14 -12 0 -34 -11 -48 -25 -24 -23 -28 -24 -40 -10
-30 36 -109 7 -111 -41 0 -17 -2 -16 -11 4 -21 43 -95 43 -116 0 -25 -54 26
-110 82 -88 13 5 27 19 31 30 l7 22 19 -21 c28 -30 64 -36 94 -17 14 9 25 21
25 27 0 6 12 1 26 -10 33 -26 64 -27 96 -1 22 17 27 18 44 5 18 -13 17 -14
-12 -15 -30 0 -64 -25 -64 -48 0 -6 -11 0 -25 13 -31 32 -59 32 -91 -1 -27
-26 -27 -61 -2 -92 18 -22 90 -11 103 15 l11 22 22 -21 c28 -29 79 -28 103 1
17 21 20 21 35 7 21 -22 80 -20 102 2 16 16 22 17 37 5 28 -20 82 -16 102 6
15 18 19 18 37 5 31 -21 74 -17 101 10 20 20 26 22 36 10 19 -23 85 -18 106 9
18 23 19 23 37 5 28 -26 64 -22 94 10 26 27 28 27 45 10 22 -23 69 -23 90 0
22 25 21 75 -1 95 -27 24 -70 21 -94 -6 -21 -23 -22 -23 -40 -5 -24 24 -73 23
-98 -2 -19 -19 -22 -19 -43 -5 -21 15 -21 15 11 15 22 0 41 8 56 25 21 22 25
23 36 10 28 -33 110 -7 110 35 0 9 7 6 20 -8 14 -14 33 -22 55 -22 69 0 86 87
23 118 -34 16 -76 -1 -85 -36 l-6 -25 -13 26 c-14 26 -64 45 -84 32 -7 -4 -6
1 1 13 11 18 15 19 33 6 11 -8 33 -14 48 -14 29 0 68 30 68 52 0 7 7 2 16 -10
29 -42 102 -25 119 29 7 21 7 21 19 -2 18 -36 79 -39 101 -5 34 51 -9 107 -70
92 -15 -4 -30 -17 -36 -34 -10 -26 -11 -26 -21 -7 -16 28 -28 35 -65 35 -22 0
-37 -7 -47 -22 -15 -20 -16 -21 -34 -5 -10 9 -33 17 -51 17 -29 0 -31 2 -21
21 11 19 13 19 29 5 10 -9 31 -16 48 -16 76 0 88 111 13 135 -21 7 -59 -10
-76 -33 -9 -12 -12 -12 -23 1 -10 13 -7 16 19 22 16 4 36 16 44 27 14 19 16
19 37 4 31 -21 51 -20 83 5 17 14 26 30 26 50 0 61 -78 92 -119 47 -20 -21
-21 -21 -40 -4 -14 13 -31 17 -54 14 -34 -4 -34 -3 -18 18 14 19 18 20 32 8
19 -17 70 -18 92 -1 27 21 31 60 7 90 -26 33 -71 36 -100 7 -19 -19 -22 -19
-45 -4 -14 9 -37 14 -54 12 -28 -4 -29 -4 -13 19 8 14 18 20 21 14 4 -5 19
-15 34 -20 33 -13 87 9 87 34 0 20 6 19 30 -5 26 -26 51 -25 84 1 29 23 33 54
10 87 -28 41 -113 20 -114 -29 0 -9 -5 -7 -12 6 -16 28 -28 35 -64 35 -18 0
-38 -8 -49 -20 -16 -17 -20 -18 -34 -6 -36 32 -87 27 -116 -10 -8 -10 -13 -10
-23 2 -11 12 -10 14 5 14 27 0 63 28 63 50 0 17 2 17 25 -5 13 -14 36 -25 50
-25 32 0 65 33 65 65 0 55 -77 87 -113 47z m-144 -106 c3 -8 -2 -16 -14 -19
-16 -4 -17 -2 -8 14 12 23 15 23 22 5z m-133 -27 c0 -5 -7 -9 -15 -9 -15 0
-20 12 -9 23 8 8 24 -1 24 -14z m-145 -9 c3 -5 -1 -10 -10 -10 -9 0 -13 5 -10
10 3 6 8 10 10 10 2 0 7 -4 10 -10z m-135 -15 c11 -13 8 -15 -15 -15 -23 0
-26 2 -15 15 7 8 14 15 15 15 1 0 8 -7 15 -15z m350 5 c0 -5 -4 -10 -9 -10 -6
0 -13 5 -16 10 -3 6 1 10 9 10 9 0 16 -4 16 -10z m-140 -14 c0 -11 -19 -15
-25 -6 -3 5 1 10 9 10 9 0 16 -2 16 -4z m-140 -10 c0 -11 -19 -15 -25 -6 -3 5
1 10 9 10 9 0 16 -2 16 -4z m430 -77 c0 -5 -7 -9 -15 -9 -9 0 -12 6 -9 15 6
15 24 11 24 -6z m74 -24 c-5 -12 -10 -13 -20 -4 -19 15 -18 19 6 19 13 0 18
-5 14 -15z m-634 -19 c0 -3 -4 -8 -10 -11 -5 -3 -10 -1 -10 4 0 6 5 11 10 11
6 0 10 -2 10 -4z m-70 -46 c0 -5 -7 -7 -15 -4 -8 4 -15 8 -15 10 0 2 7 4 15 4
8 0 15 -4 15 -10z m784 -65 c-4 -8 -10 -12 -15 -9 -14 8 -10 24 6 24 9 0 12
-6 9 -15z m-834 -79 c0 -11 -19 -15 -25 -6 -3 5 1 10 9 10 9 0 16 -2 16 -4z
m845 -26 c3 -5 -1 -10 -10 -10 -9 0 -13 5 -10 10 3 6 8 10 10 10 2 0 7 -4 10
-10z m-845 -80 c0 -5 -5 -10 -11 -10 -5 0 -7 5 -4 10 3 6 8 10 11 10 2 0 4 -4
4 -10z m-58 -42 c-9 -9 -15 -9 -24 0 -9 9 -7 12 12 12 19 0 21 -3 12 -12z
m926 -44 c-10 -10 -21 -13 -29 -8 -12 7 0 14 41 23 2 1 -3 -6 -12 -15z m-848
-94 c0 -5 -2 -10 -4 -10 -3 0 -8 5 -11 10 -3 6 -1 10 4 10 6 0 11 -4 11 -10z
m788 -59 c-10 -16 -15 -18 -26 -8 -12 10 -11 13 9 18 13 4 25 7 27 8 1 1 -3
-8 -10 -18z m-698 -65 c0 -11 -19 -15 -25 -6 -3 5 1 10 9 10 9 0 16 -2 16 -4z
m566 -64 c-22 -5 -30 3 -21 18 5 8 11 7 22 -2 15 -12 14 -13 -1 -16z m-141 -2
c3 -5 -1 -10 -10 -10 -9 0 -13 5 -10 10 3 6 8 10 10 10 2 0 7 -4 10 -10z
m-280 -30 c3 -5 -1 -10 -10 -10 -9 0 -13 5 -10 10 3 6 8 10 10 10 2 0 7 -4 10
-10z m355 0 c0 -5 -4 -10 -9 -10 -6 0 -13 5 -16 10 -3 6 1 10 9 10 9 0 16 -4
16 -10z m-140 -10 c0 -5 -4 -10 -9 -10 -6 0 -13 5 -16 10 -3 6 1 10 9 10 9 0
16 -4 16 -10z m-272 -29 c-9 -15 -15 -17 -30 -7 -17 10 -16 12 9 17 15 4 29 7
31 8 1 0 -3 -8 -10 -18z m132 9 c0 -5 -4 -10 -9 -10 -6 0 -13 5 -16 10 -3 6 1
10 9 10 9 0 16 -4 16 -10z"/>
<path d="M2380 4206 c-15 -19 -9 -56 11 -69 41 -26 91 22 68 65 -12 22 -61 24
-79 4z"/>
<path d="M5610 4210 c0 -5 5 -10 10 -10 6 0 10 5 10 10 0 6 -4 10 -10 10 -5 0
-10 -4 -10 -10z"/>
<path d="M1220 4200 c0 -5 5 -10 10 -10 6 0 10 5 10 10 0 6 -4 10 -10 10 -5 0
-10 -4 -10 -10z"/>
<path d="M2251 4196 c-7 -8 -11 -27 -9 -43 6 -50 78 -40 78 11 0 41 -45 62
-69 32z"/>
<path d="M5476 4201 c-4 -5 -2 -12 3 -15 5 -4 12 -2 15 3 4 5 2 12 -3 15 -5 4
-12 2 -15 -3z"/>
<path d="M1080 4190 c0 -5 5 -10 10 -10 6 0 10 5 10 10 0 6 -4 10 -10 10 -5 0
-10 -4 -10 -10z"/>
<path d="M5332 4184 c4 -21 22 -23 26 -1 2 10 -3 17 -13 17 -10 0 -15 -6 -13
-16z"/>
<path d="M2110 4175 c-26 -32 13 -81 48 -59 34 22 22 74 -18 74 -10 0 -23 -7
-30 -15z"/>
<path d="M5190 4170 c0 -13 7 -20 20 -20 13 0 20 7 20 20 0 13 -7 20 -20 20
-13 0 -20 -7 -20 -20z"/>
<path d="M945 4170 c3 -5 8 -10 11 -10 2 0 4 5 4 10 0 6 -5 10 -11 10 -5 0 -7
-4 -4 -10z"/>
<path d="M5044 4165 c-8 -19 3 -35 26 -35 19 0 34 25 24 41 -8 14 -44 10 -50
-6z"/>
<path d="M1974 4156 c-11 -28 1 -51 25 -51 32 0 49 28 32 49 -17 20 -50 21
-57 2z"/>
<path d="M4904 4155 c-4 -9 0 -23 9 -32 21 -21 49 -9 45 19 -4 28 -45 38 -54
13z"/>
<path d="M4763 4144 c-8 -22 10 -49 32 -49 10 0 22 7 28 16 15 24 1 49 -28 49
-15 0 -28 -7 -32 -16z"/>
<path d="M1834 4135 c-7 -17 12 -45 31 -45 19 0 36 25 29 44 -8 20 -53 21 -60
1z"/>
<path d="M4487 4132 c-30 -33 -15 -72 28 -72 44 0 63 60 26 80 -27 14 -35 13
-54 -8z"/>
<path d="M4624 4136 c-12 -31 0 -51 31 -51 27 0 30 3 30 30 0 25 -4 30 -28 33
-17 2 -29 -2 -33 -12z"/>
<path d="M1712 4131 c-20 -12 -10 -46 13 -46 14 0 20 7 20 24 0 27 -13 35 -33
22z"/>
<path d="M4345 4124 c-19 -20 -16 -63 6 -77 26 -16 68 0 75 29 12 48 -46 83
-81 48z"/>
<path d="M4208 4119 c-12 -6 -18 -22 -18 -45 0 -43 34 -64 75 -46 20 9 25 19
25 46 0 48 -40 70 -82 45z"/>
<path d="M1567 4107 c-3 -8 -2 -20 3 -27 11 -18 42 -4 38 17 -4 22 -34 29 -41
10z"/>
<path d="M2597 4102 c-37 -41 -11 -102 42 -102 55 0 80 61 41 100 -25 25 -62
26 -83 2z"/>
<path d="M4054 4094 c-37 -55 25 -117 80 -80 30 19 35 65 10 90 -25 25 -71 20
-90 -10z"/>
<path d="M1432 4083 c2 -10 10 -18 18 -18 8 0 16 8 18 18 2 12 -3 17 -18 17
-15 0 -20 -5 -18 -17z"/>
<path d="M2453 4074 c-15 -24 -15 -29 -2 -53 11 -20 22 -26 49 -26 27 0 38 6
49 26 13 24 13 29 -2 53 -12 18 -26 26 -47 26 -21 0 -35 -8 -47 -26z"/>
<path d="M1302 4071 c4 -13 18 -16 19 -4 0 4 -5 9 -11 12 -7 2 -11 -2 -8 -8z"/>
<path d="M2322 4068 c-30 -30 -2 -88 42 -88 29 0 46 18 46 50 0 33 -17 50 -50
50 -14 0 -31 -5 -38 -12z"/>
<path d="M5560 4064 c0 -8 5 -12 10 -9 6 4 8 11 5 16 -9 14 -15 11 -15 -7z"/>
<path d="M1166 4061 c-4 -5 -2 -12 3 -15 5 -4 12 -2 15 3 4 5 2 12 -3 15 -5 4
-12 2 -15 -3z"/>
<path d="M5420 4056 c0 -9 5 -16 10 -16 6 0 10 4 10 9 0 6 -4 13 -10 16 -5 3
-10 -1 -10 -9z"/>
<path d="M2187 4053 c-13 -12 -7 -61 9 -73 38 -32 95 27 64 66 -13 14 -61 19
-73 7z"/>
<path d="M5277 4054 c-14 -15 -6 -34 14 -34 14 0 19 5 17 17 -3 18 -20 27 -31
17z"/>
<path d="M2056 4034 c-9 -8 -16 -22 -16 -29 0 -18 27 -45 45 -45 18 0 45 27
45 45 0 18 -27 45 -45 45 -7 0 -21 -7 -29 -16z"/>
<path d="M5134 4035 c-7 -18 3 -35 21 -35 15 0 24 19 18 38 -6 17 -32 15 -39
-3z"/>
<path d="M4997 4034 c-10 -10 -9 -42 2 -48 18 -11 42 6 39 28 -3 21 -28 33
-41 20z"/>
<path d="M1922 4018 c-28 -28 -1 -75 38 -63 14 4 20 15 20 35 0 36 -33 53 -58
28z"/>
<path d="M4851 4016 c-17 -20 -2 -46 25 -46 29 0 41 24 24 45 -16 19 -34 19
-49 1z"/>
<path d="M4711 4006 c-21 -25 -4 -58 27 -54 23 2 27 8 27 33 0 23 -5 31 -21
33 -11 2 -26 -4 -33 -12z"/>
<path d="M1787 4004 c-13 -13 -7 -52 9 -58 22 -9 46 13 42 38 -3 21 -37 34
-51 20z"/>
<path d="M4570 3995 c-26 -32 13 -81 48 -59 34 22 22 74 -18 74 -10 0 -23 -7
-30 -15z"/>
<path d="M4427 3993 c-13 -12 -7 -60 8 -73 8 -7 25 -10 39 -6 51 13 40 86 -13
86 -15 0 -31 -3 -34 -7z"/>
<path d="M1644 3975 c-4 -9 -2 -21 4 -27 16 -16 47 -5 47 17 0 26 -42 34 -51
10z"/>
<path d="M4152 3974 c-32 -22 -30 -69 4 -91 24 -15 29 -15 53 -2 36 20 41 71
9 93 -28 20 -38 20 -66 0z"/>
<path d="M4280 3971 c-16 -31 -12 -49 15 -67 36 -24 75 -6 75 34 0 15 -5 33
-12 40 -19 19 -66 15 -78 -7z"/>
<path d="M1517 3973 c-15 -14 -7 -43 12 -43 26 0 36 17 21 35 -14 16 -23 19
-33 8z"/>
<path d="M4007 3962 c-21 -23 -22 -75 -2 -92 37 -31 105 0 105 47 0 52 -69 82
-103 45z"/>
<path d="M2534 3945 c-21 -31 -15 -53 19 -79 26 -19 30 -19 55 -5 33 18 42 68
17 93 -25 25 -72 20 -91 -9z"/>
<path d="M1374 3949 c-9 -15 11 -33 30 -26 9 4 13 13 10 22 -7 17 -30 20 -40
4z"/>
<path d="M5780 3950 c0 -5 5 -10 11 -10 5 0 7 5 4 10 -3 6 -8 10 -11 10 -2 0
-4 -4 -4 -10z"/>
<path d="M2398 3925 c-18 -41 3 -75 47 -75 28 0 38 5 47 25 18 41 -3 75 -47
75 -28 0 -38 -5 -47 -25z"/>
<path d="M1246 3933 c-11 -11 -6 -23 9 -23 8 0 15 4 15 9 0 13 -16 22 -24 14z"/>
<path d="M5640 3930 c0 -5 5 -10 10 -10 6 0 10 5 10 10 0 6 -4 10 -10 10 -5 0
-10 -4 -10 -10z"/>
<path d="M2264 3904 c-9 -34 6 -58 38 -62 31 -4 50 19 46 55 -3 24 -8 28 -40
31 -33 3 -38 0 -44 -24z"/>
<path d="M5355 3921 c-8 -15 3 -31 21 -31 9 0 14 7 12 17 -4 20 -24 28 -33 14z"/>
<path d="M5500 3921 c0 -6 5 -13 10 -16 6 -3 10 1 10 9 0 9 -4 16 -10 16 -5 0
-10 -4 -10 -9z"/>
<path d="M1110 3910 c0 -5 5 -10 10 -10 6 0 10 5 10 10 0 6 -4 10 -10 10 -5 0
-10 -4 -10 -10z"/>
<path d="M2135 3900 c-37 -41 24 -97 63 -58 18 18 14 56 -7 68 -27 14 -35 13
-56 -10z"/>
<path d="M5220 3910 c-18 -11 -4 -42 17 -38 10 2 19 10 21 19 4 19 -19 31 -38
19z"/>
<path d="M970 3900 c0 -5 5 -10 11 -10 5 0 7 5 4 10 -3 6 -8 10 -11 10 -2 0
-4 -4 -4 -10z"/>
<path d="M5082 3901 c-20 -12 -10 -46 13 -46 14 0 20 7 20 24 0 27 -13 35 -33
22z"/>
<path d="M2000 3885 c-26 -32 13 -81 48 -59 34 22 22 74 -18 74 -10 0 -23 -7
-30 -15z"/>
<path d="M4937 3893 c-13 -13 -7 -51 9 -57 20 -8 44 11 44 34 0 23 -37 39 -53
23z"/>
<path d="M4790 3875 c-20 -24 -3 -55 30 -55 20 0 31 6 35 20 8 25 -10 50 -35
50 -10 0 -23 -7 -30 -15z"/>
<path d="M1864 3866 c-10 -25 0 -51 20 -54 27 -6 48 25 35 49 -12 22 -47 25
-55 5z"/>
<path d="M4652 3868 c-29 -29 -2 -72 40 -66 17 2 24 11 26 32 5 41 -37 63 -66
34z"/>
<path d="M4512 3858 c-7 -7 -12 -21 -12 -33 0 -12 5 -26 12 -33 7 -7 21 -12
33 -12 12 0 26 5 33 12 7 7 12 21 12 33 0 12 -5 26 -12 33 -7 7 -21 12 -33 12
-12 0 -26 -5 -33 -12z"/>
<path d="M1726 3844 c-9 -22 17 -49 39 -40 10 3 15 15 13 28 -4 29 -42 37 -52
12z"/>
<path d="M4250 3853 c-22 -8 -40 -34 -40 -59 0 -25 34 -54 62 -54 47 0 66 76
26 104 -24 17 -25 17 -48 9z"/>
<path d="M4374 3853 c-20 -15 -25 -46 -9 -69 32 -50 109 -12 89 44 -7 20 -17
28 -39 30 -17 1 -35 -1 -41 -5z"/>
<path d="M4092 3834 c-34 -23 -27 -83 11 -104 24 -13 30 -13 55 0 37 21 44 81
10 104 -12 9 -29 16 -38 16 -9 0 -26 -7 -38 -16z"/>
<path d="M1592 3818 c2 -15 10 -23 23 -23 13 0 21 8 23 23 3 18 -1 22 -23 22
-22 0 -26 -4 -23 -22z"/>
<path d="M1457 3816 c-8 -20 20 -43 35 -28 14 14 3 42 -16 42 -7 0 -16 -6 -19
-14z"/>
<path d="M2487 3812 c-24 -26 -22 -79 2 -92 32 -17 69 -12 85 12 21 30 20 54
-4 78 -25 25 -62 26 -83 2z"/>
<path d="M1325 3799 c-10 -15 1 -23 20 -15 9 3 13 10 10 16 -8 13 -22 13 -30
-1z"/>
<path d="M2343 3784 c-15 -24 -15 -29 -2 -53 29 -52 99 -35 99 24 0 57 -66 76
-97 29z"/>
<path d="M5725 3800 c3 -5 8 -10 11 -10 2 0 4 5 4 10 0 6 -5 10 -11 10 -5 0
-7 -4 -4 -10z"/>
<path d="M5585 3790 c-3 -5 -1 -10 4 -10 6 0 11 5 11 10 0 6 -2 10 -4 10 -3 0
-8 -4 -11 -10z"/>
<path d="M1190 3780 c0 -5 5 -10 10 -10 6 0 10 5 10 10 0 6 -4 10 -10 10 -5 0
-10 -4 -10 -10z"/>
<path d="M2210 3770 c-25 -46 11 -90 60 -75 24 7 37 51 23 74 -16 26 -69 26
-83 1z"/>
<path d="M5446 3781 c-4 -5 -2 -12 3 -15 5 -4 12 -2 15 3 4 5 2 12 -3 15 -5 4
-12 2 -15 -3z"/>
<path d="M1055 3771 c-3 -5 -1 -12 5 -16 5 -3 10 1 10 9 0 18 -6 21 -15 7z"/>
<path d="M5300 3760 c0 -15 5 -20 18 -18 9 2 17 10 17 18 0 8 -8 16 -17 18
-13 2 -18 -3 -18 -18z"/>
<path d="M2077 3763 c-4 -3 -7 -19 -7 -35 0 -21 7 -32 25 -40 22 -10 29 -9 47
10 19 18 20 25 10 47 -8 18 -19 25 -40 25 -16 0 -32 -3 -35 -7z"/>
<path d="M5162 3748 c2 -13 10 -23 18 -23 8 0 16 10 18 23 3 17 -2 22 -18 22
-16 0 -21 -5 -18 -22z"/>
<path d="M5016 3744 c-4 -10 -2 -22 3 -27 15 -15 46 -3 46 18 0 26 -40 33 -49
9z"/>
<path d="M1942 3738 c-18 -18 -15 -35 10 -52 30 -21 60 -4 56 32 -2 20 -9 28
-28 30 -14 2 -31 -3 -38 -10z"/>
<path d="M4874 3735 c-10 -25 4 -47 28 -43 17 2 24 11 26 31 3 23 0 27 -23 27
-14 0 -28 -7 -31 -15z"/>
<path d="M1810 3725 c-20 -25 -8 -50 25 -50 21 0 31 5 33 18 4 21 -14 47 -33
47 -7 0 -18 -7 -25 -15z"/>
<path d="M4737 3734 c-15 -15 -7 -53 13 -59 27 -8 52 12 48 39 -3 21 -46 35
-61 20z"/>
<path d="M4457 3712 c-24 -26 -21 -49 7 -67 33 -22 66 -5 66 33 0 50 -42 69
-73 34z"/>
<path d="M4597 3723 c-12 -12 -7 -50 8 -63 30 -25 72 11 60 51 -6 19 -54 27
-68 12z"/>
<path d="M1677 3713 c-4 -3 -7 -17 -7 -30 0 -18 5 -23 25 -23 14 0 28 7 31 15
11 27 -30 58 -49 38z"/>
<path d="M4316 3704 c-19 -18 -21 -55 -4 -72 7 -7 24 -12 38 -12 14 0 31 5 38
12 28 28 2 88 -38 88 -10 0 -26 -7 -34 -16z"/>
<path d="M4178 3699 c-21 -12 -24 -69 -6 -87 17 -17 64 -15 82 4 48 47 -17
118 -76 83z"/>
<path d="M1534 3685 c-8 -20 4 -35 26 -35 23 0 32 13 24 34 -8 20 -43 21 -50
1z"/>
<path d="M2572 3684 c-24 -16 -29 -53 -12 -85 13 -24 72 -26 94 -3 35 35 6
104 -44 104 -9 0 -26 -7 -38 -16z"/>
<path d="M4027 3682 c-40 -44 -6 -106 54 -100 47 4 71 46 49 86 -20 35 -77 43
-103 14z"/>
<path d="M1400 3660 c0 -13 7 -20 20 -20 13 0 20 7 20 20 0 13 -7 20 -20 20
-13 0 -20 -7 -20 -20z"/>
<path d="M2442 3673 c-7 -3 -18 -16 -23 -30 -21 -56 54 -100 94 -55 43 47 -10
110 -71 85z"/>
<path d="M1271 3656 c-12 -14 -5 -26 16 -26 15 0 18 26 4 34 -5 3 -14 0 -20
-8z"/>
<path d="M5670 3654 c0 -8 5 -12 10 -9 6 4 8 11 5 16 -9 14 -15 11 -15 -7z"/>
<path d="M2296 3644 c-32 -31 -8 -84 38 -84 29 0 46 18 46 50 0 14 -5 31 -12
38 -17 17 -54 15 -72 -4z"/>
<path d="M5526 3652 c-3 -6 -1 -14 5 -17 15 -10 25 3 12 16 -7 7 -13 7 -17 1z"/>
<path d="M1136 3641 c-4 -5 -2 -12 3 -15 5 -4 12 -2 15 3 4 5 2 12 -3 15 -5 4
-12 2 -15 -3z"/>
<path d="M5384 3639 c-10 -17 13 -36 27 -22 12 12 4 33 -11 33 -5 0 -12 -5
-16 -11z"/>
<path d="M2160 3626 c-31 -38 9 -89 54 -68 45 20 30 82 -20 82 -12 0 -27 -7
-34 -14z"/>
<path d="M5243 3624 c-3 -8 -1 -20 5 -26 15 -15 43 8 35 28 -7 19 -32 18 -40
-2z"/>
<path d="M1000 3620 c0 -5 5 -10 10 -10 6 0 10 5 10 10 0 6 -4 10 -10 10 -5 0
-10 -4 -10 -10z"/>
<path d="M5107 3624 c-4 -4 -7 -16 -7 -26 0 -13 7 -18 26 -18 21 0 25 4 22 22
-3 23 -27 35 -41 22z"/>
<path d="M2027 3613 c-12 -12 -7 -50 8 -63 32 -27 82 23 55 55 -13 15 -51 20
-63 8z"/>
<path d="M4961 3606 c-16 -20 -3 -46 24 -46 25 0 38 21 29 45 -8 19 -38 19
-53 1z"/>
<path d="M1898 3599 c-37 -21 -9 -77 32 -64 25 8 28 60 4 69 -19 7 -15 8 -36
-5z"/>
<path d="M4815 3590 c-8 -27 12 -52 39 -48 16 2 21 10 21 33 0 25 -4 31 -27
33 -19 2 -28 -2 -33 -18z"/>
<path d="M4677 3593 c-11 -11 -8 -48 5 -61 30 -30 75 0 64 43 -5 19 -13 25
-35 25 -15 0 -31 -3 -34 -7z"/>
<path d="M1763 3583 c-17 -6 -16 -38 1 -52 20 -16 46 -3 46 24 0 18 -22 40
-33 34 -1 0 -8 -3 -14 -6z"/>
<path d="M4399 3571 c-20 -16 -22 -23 -14 -47 8 -23 17 -30 44 -32 38 -4 51 9
51 50 0 17 -7 31 -19 38 -27 14 -35 13 -62 -9z"/>
<path d="M4537 3583 c-4 -3 -7 -19 -7 -34 0 -39 33 -56 66 -34 27 17 29 27 14
56 -10 19 -59 27 -73 12z"/>
<path d="M4257 3562 c-20 -22 -22 -63 -5 -80 7 -7 26 -12 43 -12 38 0 55 16
55 50 0 52 -60 78 -93 42z"/>
<path d="M1627 3564 c-4 -4 -7 -16 -7 -26 0 -14 6 -19 23 -16 14 2 22 10 22
23 0 20 -25 32 -38 19z"/>
<path d="M1487 3544 c-16 -16 -6 -35 16 -32 12 2 22 10 22 18 0 16 -26 25 -38
14z"/>
<path d="M1350 3515 c0 -8 7 -15 15 -15 8 0 15 7 15 15 0 8 -7 15 -15 15 -8 0
-15 -7 -15 -15z"/>
<path d="M2372 3518 c-18 -18 -14 -63 6 -81 38 -34 92 -8 92 44 0 33 -18 49
-55 49 -17 0 -36 -5 -43 -12z"/>
<path d="M1216 3512 c-3 -6 -1 -14 5 -17 15 -10 25 3 12 16 -7 7 -13 7 -17 1z"/>
<path d="M2253 3510 c-18 -7 -23 -17 -23 -45 0 -29 5 -37 26 -45 29 -11 58 0
68 26 9 25 7 33 -14 54 -22 22 -25 23 -57 10z"/>
<path d="M5610 3510 c0 -5 5 -10 10 -10 6 0 10 5 10 10 0 6 -4 10 -10 10 -5 0
-10 -4 -10 -10z"/>
<path d="M5472 3501 c4 -13 18 -16 19 -4 0 4 -5 9 -11 12 -7 2 -11 -2 -8 -8z"/>
<path d="M1080 3490 c0 -5 5 -10 10 -10 6 0 10 5 10 10 0 6 -4 10 -10 10 -5 0
-10 -4 -10 -10z"/>
<path d="M2105 3480 c-15 -17 -16 -24 -7 -46 10 -21 18 -25 45 -22 27 2 33 8
35 31 6 53 -38 75 -73 37z"/>
<path d="M5330 3485 c0 -8 7 -15 15 -15 8 0 15 7 15 15 0 8 -7 15 -15 15 -8 0
-15 -7 -15 -15z"/>
<path d="M5184 3479 c-9 -15 12 -33 30 -26 9 4 16 13 16 22 0 17 -35 21 -46 4z"/>
<path d="M1972 3468 c-29 -29 -2 -72 40 -66 42 6 32 78 -11 78 -9 0 -22 -5
-29 -12z"/>
<path d="M5043 3464 c-3 -8 -1 -20 5 -26 16 -16 42 -2 42 22 0 24 -38 28 -47
4z"/>
<path d="M4772 3461 c-22 -14 -10 -56 17 -59 37 -6 52 26 25 52 -18 18 -24 19
-42 7z"/>
<path d="M4903 3454 c-3 -8 2 -23 11 -32 15 -15 17 -15 32 0 21 21 11 48 -16
48 -11 0 -23 -7 -27 -16z"/>
<path d="M1834 3446 c-11 -28 1 -51 28 -54 31 -4 48 29 28 53 -16 19 -49 19
-56 1z"/>
<path d="M4626 3444 c-31 -30 -8 -69 36 -62 26 3 37 41 18 64 -16 18 -35 18
-54 -2z"/>
<path d="M4486 3434 c-30 -30 -13 -74 29 -74 12 0 26 5 33 12 7 7 12 21 12 33
0 42 -44 59 -74 29z"/>
<path d="M1696 3424 c-7 -19 10 -44 29 -44 19 0 36 25 29 44 -3 9 -16 16 -29
16 -13 0 -26 -7 -29 -16z"/>
<path d="M4342 3428 c-22 -22 -15 -67 12 -80 31 -14 53 -5 68 27 9 21 8 28 -7
45 -20 22 -55 26 -73 8z"/>
<path d="M4196 3408 c-21 -30 -20 -44 4 -68 24 -24 53 -26 74 -4 19 18 21 65
4 82 -20 20 -65 14 -82 -10z"/>
<path d="M1562 3398 c2 -15 10 -23 23 -23 13 0 21 8 23 23 3 18 -1 22 -23 22
-22 0 -26 -4 -23 -22z"/>
<path d="M2598 3409 c-23 -13 -24 -72 -2 -93 21 -22 60 -20 84 4 53 53 -16
128 -82 89z"/>
<path d="M4056 3404 c-34 -33 -4 -104 44 -104 27 0 60 35 60 64 0 33 -25 56
-60 56 -16 0 -36 -7 -44 -16z"/>
<path d="M1437 3404 c-15 -15 -7 -45 11 -42 9 2 17 12 17 22 0 20 -16 31 -28
20z"/>
<path d="M2457 3382 c-22 -25 -21 -48 3 -72 24 -24 53 -26 74 -4 19 18 21 65
4 82 -18 18 -63 14 -81 -6z"/>
<path d="M1294 3379 c-10 -17 13 -36 27 -22 12 12 4 33 -11 33 -5 0 -12 -5
-16 -11z"/>
<path d="M5690 3380 c0 -5 5 -10 10 -10 6 0 10 5 10 10 0 6 -4 10 -10 10 -5 0
-10 -4 -10 -10z"/>
<path d="M2322 3368 c-18 -18 -15 -53 6 -71 24 -22 45 -21 65 1 34 37 15 82
-33 82 -14 0 -31 -5 -38 -12z"/>
<path d="M5556 3371 c-4 -5 -2 -12 3 -15 5 -4 12 -2 15 3 4 5 2 12 -3 15 -5 4
-12 2 -15 -3z"/>
<path d="M1162 3361 c4 -13 18 -16 19 -4 0 4 -5 9 -11 12 -7 2 -11 -2 -8 -8z"/>
<path d="M5417 3364 c-8 -8 1 -24 14 -24 5 0 9 7 9 15 0 15 -12 20 -23 9z"/>
<path d="M1026 3351 c-4 -5 -2 -12 3 -15 5 -4 12 -2 15 3 4 5 2 12 -3 15 -5 4
-12 2 -15 -3z"/>
<path d="M2184 3346 c-3 -8 -4 -25 -2 -38 2 -19 9 -23 37 -23 66 0 68 67 2 73
-21 2 -33 -2 -37 -12z"/>
<path d="M5270 3340 c0 -13 7 -20 20 -20 13 0 20 7 20 20 0 13 -7 20 -20 20
-13 0 -20 -7 -20 -20z"/>
<path d="M2056 3334 c-31 -30 -8 -69 36 -62 26 3 37 41 18 64 -16 18 -35 18
-54 -2z"/>
<path d="M5132 3328 c4 -27 33 -36 42 -13 8 22 -1 35 -25 35 -15 0 -20 -6 -17
-22z"/>
<path d="M4984 3325 c-4 -9 0 -23 8 -31 20 -20 50 -7 46 20 -4 26 -45 35 -54
11z"/>
<path d="M1920 3315 c-20 -25 -8 -50 25 -50 21 0 31 5 33 18 4 21 -14 47 -33
47 -7 0 -18 -7 -25 -15z"/>
<path d="M4844 3316 c-11 -28 4 -48 33 -44 22 2 28 8 28 28 0 20 -6 26 -28 28
-18 2 -29 -2 -33 -12z"/>
<path d="M4578 3309 c-11 -6 -18 -22 -18 -39 0 -23 5 -31 25 -36 15 -4 32 -1
40 6 21 18 19 57 -4 70 -23 12 -22 12 -43 -1z"/>
<path d="M4704 3306 c-12 -31 0 -51 31 -51 27 0 30 3 30 30 0 25 -4 30 -28 33
-17 2 -29 -2 -33 -12z"/>
<path d="M1784 3296 c-10 -26 4 -48 28 -44 17 2 23 10 23 28 0 18 -6 26 -23
28 -13 2 -25 -3 -28 -12z"/>
<path d="M4427 3292 c-22 -24 -21 -45 1 -65 24 -22 45 -21 65 1 22 24 21 45
-1 65 -24 22 -45 21 -65 -1z"/>
<path d="M4286 3284 c-41 -40 7 -109 59 -86 20 9 25 19 25 46 0 51 -50 75 -84
40z"/>
<path d="M1644 3275 c-8 -19 3 -35 26 -35 19 0 30 17 23 38 -6 17 -42 15 -49
-3z"/>
<path d="M4146 3274 c-19 -18 -21 -65 -4 -82 20 -20 76 -15 88 7 32 61 -37
123 -84 75z"/>
<path d="M1517 3274 c-16 -16 -7 -44 14 -44 15 0 20 5 17 22 -3 22 -19 33 -31
22z"/>
<path d="M4000 3260 c-24 -24 -25 -48 -4 -78 32 -46 114 -17 114 40 0 26 -36
58 -65 58 -14 0 -34 -9 -45 -20z"/>
<path d="M2536 3254 c-35 -35 -6 -94 47 -94 47 0 71 45 47 91 -13 24 -72 26
-94 3z"/>
<path d="M1375 3250 c-8 -14 3 -30 21 -30 8 0 14 9 14 20 0 21 -24 28 -35 10z"/>
<path d="M2412 3244 c-24 -17 -30 -62 -10 -82 20 -20 65 -14 82 10 21 30 20
44 -4 68 -24 24 -38 25 -68 4z"/>
<path d="M5640 3240 c0 -5 5 -10 11 -10 5 0 7 5 4 10 -3 6 -8 10 -11 10 -2 0
-4 -4 -4 -10z"/>
<path d="M1246 3231 c-4 -5 -2 -12 3 -15 5 -4 12 -2 15 3 4 5 2 12 -3 15 -5 4
-12 2 -15 -3z"/>
<path d="M2278 3229 c-21 -12 -24 -59 -6 -77 7 -7 21 -12 33 -12 12 0 26 5 33
12 19 19 15 66 -7 78 -24 12 -31 12 -53 -1z"/>
<path d="M5500 3220 c0 -5 5 -10 10 -10 6 0 10 5 10 10 0 6 -4 10 -10 10 -5 0
-10 -4 -10 -10z"/>
<path d="M1110 3209 c0 -5 5 -7 10 -4 6 3 10 8 10 11 0 2 -4 4 -10 4 -5 0 -10
-5 -10 -11z"/>
<path d="M2136 3204 c-9 -8 -16 -22 -16 -29 0 -7 7 -21 16 -29 30 -30 74 -13
74 29 0 42 -44 59 -74 29z"/>
<path d="M5223 3213 c-18 -6 -16 -30 2 -37 9 -3 18 1 22 10 7 18 -7 33 -24 27z"/>
<path d="M5356 3211 c-3 -5 0 -11 8 -14 15 -6 26 1 26 15 0 11 -27 10 -34 -1z"/>
<path d="M970 3200 c0 -5 5 -10 11 -10 5 0 7 5 4 10 -3 6 -8 10 -11 10 -2 0
-4 -4 -4 -10z"/>
<path d="M5080 3200 c-18 -11 -4 -42 17 -38 10 2 19 10 21 19 4 19 -19 31 -38
19z"/>
<path d="M2003 3193 c-18 -7 -16 -48 2 -63 19 -15 52 -4 60 21 11 35 -23 58
-62 42z"/>
<path d="M4942 3191 c-20 -12 -10 -46 13 -46 14 0 20 7 20 24 0 27 -13 35 -33
22z"/>
<path d="M4803 3183 c-15 -6 -17 -49 -3 -58 20 -12 50 6 50 30 0 18 -21 40
-33 34 -1 0 -8 -3 -14 -6z"/>
<path d="M1867 3174 c-13 -13 -7 -52 8 -58 27 -10 46 5 43 33 -3 26 -35 41
-51 25z"/>
<path d="M4650 3161 c-12 -23 -5 -47 16 -55 21 -8 42 3 49 25 14 42 -44 68
-65 30z"/>
<path d="M4512 3158 c-29 -29 -2 -72 40 -66 42 6 32 78 -11 78 -9 0 -22 -5
-29 -12z"/>
<path d="M1723 3144 c-7 -20 22 -45 43 -37 8 3 14 16 14 29 0 19 -5 24 -25 24
-15 0 -28 -7 -32 -16z"/>
<path d="M2760 3140 c-39 -39 -14 -100 43 -100 33 0 57 24 57 59 0 55 -61 80
-100 41z"/>
<path d="M4372 3148 c-30 -30 -3 -83 39 -76 32 5 45 31 31 62 -13 28 -49 35
-70 14z"/>
<path d="M1597 3144 c-4 -4 -7 -16 -7 -26 0 -14 6 -19 23 -16 14 2 22 10 22
23 0 20 -25 32 -38 19z"/>
<path d="M4232 3138 c-7 -7 -12 -25 -12 -40 0 -34 41 -59 68 -41 21 12 28 59
11 79 -14 17 -51 18 -67 2z"/>
<path d="M2628 3129 c-21 -12 -24 -69 -6 -87 17 -17 64 -15 82 4 48 47 -17
118 -76 83z"/>
<path d="M4084 3115 c-20 -30 -11 -62 21 -77 52 -23 99 46 59 86 -23 24 -61
20 -80 -9z"/>
<path d="M1455 3120 c-4 -7 -3 -16 3 -22 14 -14 45 -2 40 15 -6 16 -34 21 -43
7z"/>
<path d="M3947 3112 c-35 -39 -10 -92 42 -92 29 0 61 27 61 51 0 51 -70 78
-103 41z"/>
<path d="M2486 3104 c-21 -21 -20 -47 2 -67 24 -22 55 -21 75 1 32 35 10 82
-38 82 -13 0 -31 -7 -39 -16z"/>
<path d="M3807 3102 c-37 -40 -9 -102 46 -102 34 0 57 24 57 60 0 16 -7 36
-16 44 -21 22 -67 20 -87 -2z"/>
<path d="M1327 3104 c-8 -8 1 -24 14 -24 5 0 9 7 9 15 0 15 -12 20 -23 9z"/>
<path d="M3667 3092 c-10 -10 -17 -27 -18 -38 0 -14 -2 -15 -6 -4 -12 31 -37
50 -68 50 -31 0 -65 -25 -65 -48 0 -6 -11 0 -25 13 -13 14 -36 25 -50 25 -25
0 -65 -31 -65 -51 0 -6 -8 -1 -18 12 -27 32 -78 30 -107 -3 -22 -25 -23 -25
-39 -7 -25 30 -71 25 -97 -11 -22 -29 -23 -29 -36 -10 -17 25 -75 27 -97 4
-17 -16 -21 -61 -8 -80 26 -39 90 -36 112 6 l12 22 14 -21 c22 -31 88 -29 109
3 16 24 17 24 36 5 27 -27 75 -25 101 4 21 23 22 23 40 5 10 -10 28 -18 41
-18 29 0 67 27 67 47 0 14 4 13 23 -5 40 -38 117 -19 117 28 0 7 11 1 25 -14
13 -14 35 -26 48 -26 29 0 67 39 67 68 0 52 -79 82 -113 44z"/>
<path d="M1190 3086 c0 -9 5 -16 10 -16 6 0 10 4 10 9 0 6 -4 13 -10 16 -5 3
-10 -1 -10 -9z"/>
<path d="M2352 3088 c-28 -28 -7 -78 34 -78 29 0 46 23 42 57 -2 23 -8 29 -33
31 -17 2 -36 -3 -43 -10z"/>
<path d="M5580 3090 c0 -5 5 -10 10 -10 6 0 10 5 10 10 0 6 -4 10 -10 10 -5 0
-10 -4 -10 -10z"/>
<path d="M2226 3077 c-38 -27 2 -95 42 -71 24 16 28 55 6 71 -10 7 -21 13 -24
13 -3 0 -14 -6 -24 -13z"/>
<path d="M5442 3081 c4 -13 18 -16 19 -4 0 4 -5 9 -11 12 -7 2 -11 -2 -8 -8z"/>
<path d="M1050 3070 c0 -5 5 -10 10 -10 6 0 10 5 10 10 0 6 -4 10 -10 10 -5 0
-10 -4 -10 -10z"/>
<path d="M5300 3066 c0 -8 4 -17 9 -20 11 -7 33 18 24 27 -12 12 -33 7 -33 -7z"/>
<path d="M2080 3055 c-10 -12 -10 -21 -1 -41 13 -29 47 -30 65 -1 23 37 -36
76 -64 42z"/>
<path d="M5155 3060 c-9 -15 4 -30 26 -30 12 0 19 7 19 20 0 21 -33 29 -45 10z"/>
<path d="M5014 3045 c-8 -19 3 -35 26 -35 19 0 34 25 24 41 -8 14 -44 10 -50
-6z"/>
<path d="M1943 3034 c-8 -20 8 -48 30 -52 22 -5 42 35 26 54 -16 19 -48 18
-56 -2z"/>
<path d="M4874 3035 c-4 -9 0 -23 8 -31 20 -20 50 -7 46 20 -4 26 -45 35 -54
11z"/>
<path d="M4734 3025 c-10 -25 4 -45 30 -45 25 0 39 20 30 45 -4 8 -17 15 -30
15 -14 0 -27 -7 -30 -15z"/>
<path d="M1810 3007 c0 -27 19 -40 39 -27 20 12 8 45 -17 48 -18 3 -22 -1 -22
-21z"/>
<path d="M2842 3007 c-26 -28 -27 -45 -6 -75 17 -25 71 -31 92 -10 21 21 15
75 -10 92 -31 22 -51 20 -76 -7z"/>
<path d="M4594 3016 c-12 -31 0 -51 31 -51 27 0 30 3 30 30 0 25 -4 30 -28 33
-17 2 -29 -2 -33 -12z"/>
<path d="M4322 3004 c-27 -18 -28 -45 -4 -67 35 -32 72 -14 72 35 0 17 -7 31
-19 38 -25 13 -22 13 -49 -6z"/>
<path d="M4450 3001 c-14 -27 -3 -50 27 -57 34 -9 58 16 49 50 -5 21 -12 26
-36 26 -19 0 -33 -7 -40 -19z"/>
<path d="M1670 2990 c0 -15 7 -20 25 -20 18 0 25 5 25 20 0 15 -7 20 -25 20
-18 0 -25 -5 -25 -20z"/>
<path d="M2706 2994 c-19 -18 -21 -65 -4 -82 7 -7 26 -12 43 -12 38 0 55 16
55 51 0 34 -24 59 -55 59 -13 0 -31 -7 -39 -16z"/>
<path d="M4182 2994 c-41 -29 -23 -84 28 -84 49 0 68 51 32 83 -23 21 -32 21
-60 1z"/>
<path d="M1540 2981 c0 -15 6 -21 21 -21 25 0 22 33 -4 38 -12 2 -17 -3 -17
-17z"/>
<path d="M4042 2984 c-24 -17 -30 -62 -10 -82 20 -20 65 -14 82 10 21 30 20
44 -4 68 -24 24 -38 25 -68 4z"/>
<path d="M2565 2966 c-25 -38 -3 -76 46 -76 32 0 49 17 49 50 0 34 -17 50 -52
50 -18 0 -33 -8 -43 -24z"/>
<path d="M3902 2974 c-40 -27 -18 -104 29 -104 29 0 59 31 59 60 0 28 -30 60
-55 60 -6 0 -21 -7 -33 -16z"/>
<path d="M1405 2971 c-7 -12 12 -24 25 -16 11 7 4 25 -10 25 -5 0 -11 -4 -15
-9z"/>
<path d="M3762 2964 c-25 -17 -31 -71 -10 -92 21 -21 75 -15 92 10 22 31 20
45 -9 73 -28 29 -42 31 -73 9z"/>
<path d="M2432 2958 c-16 -16 -15 -53 2 -67 8 -7 27 -11 43 -9 34 4 54 47 33
72 -15 19 -61 21 -78 4z"/>
<path d="M1270 2950 c0 -5 5 -10 10 -10 6 0 10 5 10 10 0 6 -4 10 -10 10 -5 0
-10 -4 -10 -10z"/>
<path d="M2306 2947 c-12 -9 -17 -23 -14 -42 2 -25 8 -30 35 -33 43 -4 62 28
38 64 -17 27 -33 30 -59 11z"/>
<path d="M3612 2948 c-18 -18 -14 -73 6 -91 25 -23 58 -21 82 3 41 41 13 100
-46 100 -17 0 -35 -5 -42 -12z"/>
<path d="M5526 2951 c-4 -5 -2 -12 3 -15 5 -4 12 -2 15 3 4 5 2 12 -3 15 -5 4
-12 2 -15 -3z"/>
<path d="M1135 2940 c-3 -5 -1 -10 4 -10 6 0 11 5 11 10 0 6 -2 10 -4 10 -3 0
-8 -4 -11 -10z"/>
<path d="M3476 2934 c-19 -18 -21 -75 -4 -92 17 -17 74 -15 92 4 22 21 20 67
-2 87 -23 21 -66 22 -86 1z"/>
<path d="M5390 2936 c0 -9 5 -16 10 -16 6 0 10 4 10 9 0 6 -4 13 -10 16 -5 3
-10 -1 -10 -9z"/>
<path d="M2158 2915 c-14 -32 5 -57 41 -53 20 2 27 9 29 32 6 48 -50 65 -70
21z"/>
<path d="M3342 2924 c-34 -23 -27 -83 11 -104 24 -13 30 -13 55 0 37 21 44 81
10 104 -12 9 -29 16 -38 16 -9 0 -26 -7 -38 -16z"/>
<path d="M5103 2914 c-8 -21 13 -42 28 -27 13 13 5 43 -11 43 -6 0 -13 -7 -17
-16z"/>
<path d="M5245 2921 c-7 -12 12 -24 25 -16 11 7 4 25 -10 25 -5 0 -11 -4 -15
-9z"/>
<path d="M2024 2906 c-12 -31 0 -51 31 -51 27 0 30 3 30 30 0 25 -4 30 -28 33
-17 2 -29 -2 -33 -12z"/>
<path d="M3197 2902 c-50 -55 35 -139 87 -86 19 18 21 75 4 92 -18 18 -73 14
-91 -6z"/>
<path d="M4967 2913 c-4 -3 -7 -15 -7 -25 0 -23 38 -25 47 -2 8 21 -24 43 -40
27z"/>
<path d="M3066 2891 c-27 -30 -18 -83 16 -95 43 -15 78 6 78 47 0 59 -58 88
-94 48z"/>
<path d="M4824 2896 c-9 -24 4 -48 23 -44 12 2 18 12 18 28 0 29 -32 41 -41
16z"/>
<path d="M1886 2884 c-8 -21 11 -44 35 -44 19 0 35 33 24 50 -10 16 -52 12
-59 -6z"/>
<path d="M4687 2894 c-13 -13 -7 -55 9 -61 24 -9 51 23 38 45 -12 19 -36 27
-47 16z"/>
<path d="M1762 2881 c-20 -12 -10 -46 14 -49 25 -4 40 24 23 44 -13 16 -19 17
-37 5z"/>
<path d="M2926 2874 c-36 -35 -9 -94 43 -94 36 0 51 17 51 57 0 49 -59 72 -94
37z"/>
<path d="M4546 2874 c-27 -26 -12 -58 25 -52 39 5 36 67 -3 68 -4 0 -14 -7
-22 -16z"/>
<path d="M4400 2865 c-26 -32 13 -81 48 -59 34 22 22 74 -18 74 -10 0 -23 -7
-30 -15z"/>
<path d="M1620 2845 c0 -18 5 -25 20 -25 15 0 20 7 20 25 0 18 -5 25 -20 25
-15 0 -20 -7 -20 -25z"/>
<path d="M2792 2858 c-7 -7 -12 -24 -12 -38 0 -14 5 -31 12 -38 7 -7 24 -12
38 -12 14 0 31 5 38 12 7 7 12 24 12 38 0 14 -5 31 -12 38 -7 7 -24 12 -38 12
-14 0 -31 -5 -38 -12z"/>
<path d="M4268 2859 c-22 -12 -23 -52 -3 -69 8 -7 25 -10 39 -6 33 8 43 42 20
67 -19 21 -31 23 -56 8z"/>
<path d="M2656 2844 c-19 -18 -21 -55 -4 -72 7 -7 24 -12 38 -12 14 0 31 5 38
12 28 28 2 88 -38 88 -10 0 -26 -7 -34 -16z"/>
<path d="M4128 2849 c-27 -15 -24 -68 5 -78 24 -9 48 -4 59 13 14 21 8 55 -11
66 -24 12 -31 12 -53 -1z"/>
<path d="M1485 2840 c-8 -14 3 -30 21 -30 8 0 14 9 14 20 0 21 -24 28 -35 10z"/>
<path d="M3988 2839 c-21 -12 -24 -59 -6 -77 19 -19 55 -14 72 10 20 29 20 34
-4 58 -22 22 -37 24 -62 9z"/>
<path d="M2522 2828 c-17 -17 -15 -65 4 -72 31 -12 55 -6 65 18 22 47 -33 90
-69 54z"/>
<path d="M3846 2827 c-12 -9 -17 -23 -14 -47 2 -27 9 -37 30 -44 55 -19 93 55
46 88 -27 19 -39 20 -62 3z"/>
<path d="M1352 2819 c2 -6 8 -10 13 -10 5 0 11 4 13 10 2 6 -4 11 -13 11 -9 0
-15 -5 -13 -11z"/>
<path d="M3712 2814 c-24 -17 -30 -62 -10 -82 7 -7 24 -12 38 -12 33 0 50 17
50 51 0 24 -30 59 -50 59 -3 0 -16 -7 -28 -16z"/>
<path d="M1216 2811 c-4 -5 -2 -12 3 -15 5 -4 12 -2 15 3 4 5 2 12 -3 15 -5 4
-12 2 -15 -3z"/>
<path d="M2382 2808 c-27 -27 -6 -68 35 -68 29 0 48 33 33 60 -12 22 -49 27
-68 8z"/>
<path d="M3562 2798 c-20 -20 -15 -76 7 -88 43 -23 91 4 91 52 0 40 -69 65
-98 36z"/>
<path d="M5470 2800 c0 -5 5 -10 10 -10 6 0 10 5 10 10 0 6 -4 10 -10 10 -5 0
-10 -4 -10 -10z"/>
<path d="M1080 2789 c0 -5 5 -7 10 -4 6 3 10 8 10 11 0 2 -4 4 -10 4 -5 0 -10
-5 -10 -11z"/>
<path d="M2244 2786 c-12 -31 0 -51 31 -51 27 0 30 3 30 30 0 25 -4 30 -28 33
-17 2 -29 -2 -33 -12z"/>
<path d="M3428 2789 c-21 -12 -24 -69 -6 -87 20 -20 76 -15 88 7 31 59 -25
114 -82 80z"/>
<path d="M5332 2791 c4 -13 18 -16 19 -4 0 4 -5 9 -11 12 -7 2 -11 -2 -8 -8z"/>
<path d="M2109 2774 c-17 -21 0 -49 32 -49 18 0 25 6 27 24 6 38 -34 55 -59
25z"/>
<path d="M3292 2774 c-32 -22 -30 -69 4 -91 24 -15 29 -15 53 -2 36 20 41 71
9 93 -28 20 -38 20 -66 0z"/>
<path d="M5192 2774 c4 -21 22 -23 26 -1 2 10 -3 17 -13 17 -10 0 -15 -6 -13
-16z"/>
<path d="M5044 2769 c-9 -15 12 -33 30 -26 9 4 16 13 16 22 0 17 -35 21 -46 4z"/>
<path d="M1974 2756 c-10 -26 4 -48 28 -44 17 2 23 10 23 28 0 18 -6 26 -23
28 -13 2 -25 -3 -28 -12z"/>
<path d="M3146 2754 c-34 -33 -7 -94 42 -94 43 0 71 67 40 98 -17 17 -64 15
-82 -4z"/>
<path d="M4903 2754 c-3 -8 -1 -20 5 -26 16 -16 42 -2 42 22 0 24 -38 28 -47
4z"/>
<path d="M3022 2753 c-7 -3 -18 -16 -23 -30 -13 -36 12 -73 49 -73 35 0 52 17
52 51 0 45 -36 69 -78 52z"/>
<path d="M4763 2744 c-3 -8 2 -23 11 -32 15 -15 17 -15 32 0 21 21 11 48 -16
48 -11 0 -23 -7 -27 -16z"/>
<path d="M1838 2738 c-8 -21 2 -38 22 -38 19 0 34 25 24 41 -8 13 -41 11 -46
-3z"/>
<path d="M4624 2736 c-10 -26 4 -48 28 -44 17 2 23 10 23 28 0 18 -6 26 -23
28 -13 2 -25 -3 -28 -12z"/>
<path d="M1704 2725 c-7 -18 3 -35 21 -35 18 0 26 25 12 39 -15 15 -27 14 -33
-4z"/>
<path d="M2872 2728 c-7 -7 -12 -24 -12 -38 0 -14 5 -31 12 -38 7 -7 24 -12
38 -12 14 0 31 5 38 12 7 7 12 24 12 38 0 14 -5 31 -12 38 -7 7 -24 12 -38 12
-14 0 -31 -5 -38 -12z"/>
<path d="M4484 2726 c-11 -28 1 -51 25 -51 28 0 47 25 38 49 -8 20 -56 21 -63
2z"/>
<path d="M2741 2711 c-24 -24 -25 -34 -11 -62 12 -22 59 -26 78 -7 13 13 16
47 4 64 -15 24 -50 26 -71 5z"/>
<path d="M4347 2724 c-12 -12 -8 -51 8 -64 8 -6 23 -9 35 -5 17 5 20 13 18 38
-2 26 -8 33 -28 35 -14 2 -29 0 -33 -4z"/>
<path d="M1570 2700 c0 -11 7 -20 15 -20 8 0 15 9 15 20 0 11 -7 20 -15 20 -8
0 -15 -9 -15 -20z"/>
<path d="M4204 2706 c-3 -8 -4 -25 -2 -38 2 -18 9 -23 32 -23 36 0 56 27 40
53 -14 22 -62 28 -70 8z"/>
<path d="M2602 2698 c-7 -7 -12 -21 -12 -33 0 -12 5 -26 12 -33 29 -29 78 -7
78 35 0 35 -53 56 -78 31z"/>
<path d="M4060 2690 c-15 -29 -3 -59 26 -66 32 -8 54 11 54 46 0 43 -60 57
-80 20z"/>
<path d="M1435 2691 c-6 -11 9 -23 19 -14 9 9 7 23 -3 23 -6 0 -12 -4 -16 -9z"/>
<path d="M3926 2684 c-19 -18 -20 -28 -6 -55 12 -22 59 -26 78 -7 26 26 1 78
-38 78 -10 0 -26 -7 -34 -16z"/>
<path d="M1300 2676 c0 -9 5 -16 10 -16 6 0 10 4 10 9 0 6 -4 13 -10 16 -5 3
-10 -1 -10 -9z"/>
<path d="M2459 2666 c-15 -33 4 -58 39 -54 55 7 54 70 -1 76 -21 3 -30 -3 -38
-22z"/>
<path d="M3787 2672 c-22 -24 -21 -45 1 -65 37 -34 82 -15 82 35 0 45 -53 64
-83 30z"/>
<path d="M3650 2660 c-38 -38 -15 -84 40 -78 32 3 35 6 38 38 6 55 -40 78 -78
40z"/>
<path d="M1160 2660 c0 -5 5 -10 10 -10 6 0 10 5 10 10 0 6 -4 10 -10 10 -5 0
-10 -4 -10 -10z"/>
<path d="M2324 2656 c-11 -28 1 -51 27 -54 31 -4 53 20 44 48 -8 24 -62 29
-71 6z"/>
<path d="M5416 2661 c-4 -5 -2 -12 3 -15 5 -4 12 -2 15 3 4 5 2 12 -3 15 -5 4
-12 2 -15 -3z"/>
<path d="M2202 2651 c-8 -4 -12 -19 -10 -32 2 -18 9 -24 28 -24 19 0 26 6 28
24 3 20 -11 41 -28 41 -3 0 -11 -4 -18 -9z"/>
<path d="M3511 2651 c-17 -11 -18 -56 -1 -76 18 -21 54 -19 75 5 28 30 10 74
-30 78 -17 1 -36 -2 -44 -7z"/>
<path d="M5276 2652 c-3 -6 -1 -14 5 -17 15 -10 25 3 12 16 -7 7 -13 7 -17 1z"/>
<path d="M3372 2638 c-7 -7 -12 -24 -12 -38 0 -34 17 -50 52 -50 27 0 48 23
48 54 0 37 -61 61 -88 34z"/>
<path d="M5137 2636 c-6 -15 1 -26 15 -26 11 0 10 27 -1 34 -5 3 -11 0 -14 -8z"/>
<path d="M2054 2626 c-10 -26 4 -48 28 -44 17 2 23 10 23 28 0 18 -6 26 -23
28 -13 2 -25 -3 -28 -12z"/>
<path d="M3242 2624 c-30 -21 -29 -59 3 -80 23 -15 27 -15 50 0 32 21 33 59 3
80 -12 9 -25 16 -28 16 -3 0 -16 -7 -28 -16z"/>
<path d="M4997 2634 c-14 -15 -6 -34 14 -34 14 0 19 5 17 17 -3 18 -20 27 -31
17z"/>
<path d="M4857 2623 c-15 -14 -7 -43 12 -43 26 0 36 17 21 35 -14 16 -23 19
-33 8z"/>
<path d="M1920 2595 c0 -22 4 -26 23 -23 14 2 22 10 22 23 0 13 -8 21 -22 23
-19 3 -23 -1 -23 -23z"/>
<path d="M3096 2605 c-35 -35 0 -93 48 -81 29 7 45 49 29 75 -14 22 -57 25
-77 6z"/>
<path d="M1791 2601 c-19 -12 -6 -43 16 -39 10 2 18 12 18 22 0 22 -14 29 -34
17z"/>
<path d="M2968 2599 c-22 -13 -24 -62 -2 -79 23 -20 68 -1 72 30 1 14 -1 30
-5 36 -12 18 -46 24 -65 13z"/>
<path d="M4712 2588 c2 -15 10 -23 23 -23 13 0 21 8 23 23 3 18 -1 22 -23 22
-22 0 -26 -4 -23 -22z"/>
<path d="M4570 2575 c0 -20 5 -25 24 -25 14 0 27 4 30 9 11 18 -6 41 -30 41
-19 0 -24 -5 -24 -25z"/>
<path d="M1650 2570 c0 -15 5 -20 18 -18 9 2 17 10 17 18 0 8 -8 16 -17 18
-13 2 -18 -3 -18 -18z"/>
<path d="M2822 2578 c-28 -28 -7 -78 33 -78 27 0 45 18 45 45 0 12 -5 26 -12
33 -7 7 -21 12 -33 12 -12 0 -26 -5 -33 -12z"/>
<path d="M4432 2563 c2 -22 8 -28 28 -28 20 0 25 5 25 25 0 20 -6 26 -28 28
-26 3 -28 1 -25 -25z"/>
<path d="M4287 2566 c-13 -33 16 -62 49 -49 9 3 14 15 12 32 -2 20 -9 27 -29
29 -17 2 -29 -3 -32 -12z"/>
<path d="M1515 2561 c-7 -12 12 -24 25 -16 11 7 4 25 -10 25 -5 0 -11 -4 -15
-9z"/>
<path d="M2684 2556 c-3 -8 -4 -25 -2 -38 2 -18 9 -23 32 -23 36 0 56 27 40
53 -14 22 -62 28 -70 8z"/>
<path d="M4149 2554 c-17 -20 -1 -48 31 -52 30 -5 44 11 36 42 -7 30 -45 36
-67 10z"/>
<path d="M2550 2545 c-26 -32 13 -81 48 -59 23 15 26 38 7 58 -20 20 -39 20
-55 1z"/>
<path d="M4010 2545 c-10 -12 -10 -21 -2 -40 20 -44 76 -27 70 21 -2 23 -9 30
-29 32 -14 2 -31 -4 -39 -13z"/>
<path d="M1380 2540 c0 -5 5 -10 10 -10 6 0 10 5 10 10 0 6 -4 10 -10 10 -5 0
-10 -4 -10 -10z"/>
<path d="M3869 2526 c-15 -33 4 -58 39 -54 55 7 54 70 -1 76 -21 3 -30 -3 -38
-22z"/>
<path d="M1245 2530 c-3 -5 -1 -10 4 -10 6 0 11 5 11 10 0 6 -2 10 -4 10 -3 0
-8 -4 -11 -10z"/>
<path d="M2414 2526 c-11 -28 1 -51 25 -51 32 0 49 28 32 49 -17 20 -50 21
-57 2z"/>
<path d="M3736 2524 c-19 -18 -20 -28 -6 -55 20 -37 80 -18 80 26 0 42 -44 59
-74 29z"/>
<path d="M3599 2511 c-21 -17 -22 -22 -11 -45 10 -23 18 -27 45 -24 27 3 32 7
35 33 3 19 -2 33 -14 42 -23 17 -27 17 -55 -6z"/>
<path d="M2274 2505 c-10 -25 4 -47 28 -43 17 2 24 11 26 31 3 23 0 27 -23 27
-14 0 -28 -7 -31 -15z"/>
<path d="M5360 2510 c0 -5 5 -10 10 -10 6 0 10 5 10 10 0 6 -4 10 -10 10 -5 0
-10 -4 -10 -10z"/>
<path d="M2147 2504 c-4 -4 -7 -18 -7 -31 0 -20 5 -24 23 -21 16 2 22 10 22
28 0 24 -23 39 -38 24z"/>
<path d="M3448 2485 c-10 -22 -9 -29 9 -47 41 -40 100 2 73 52 -16 30 -67 27
-82 -5z"/>
<path d="M5222 2501 c2 -7 7 -12 11 -12 12 1 9 15 -3 20 -7 2 -11 -2 -8 -8z"/>
<path d="M3321 2486 c-7 -8 -11 -27 -9 -43 3 -25 7 -28 37 -28 43 0 60 23 43
59 -13 29 -52 35 -71 12z"/>
<path d="M5080 2485 c0 -9 5 -15 11 -13 6 2 11 8 11 13 0 5 -5 11 -11 13 -6 2
-11 -4 -11 -13z"/>
<path d="M2004 2475 c-4 -9 -2 -21 4 -27 15 -15 44 -1 40 19 -4 23 -36 29 -44
8z"/>
<path d="M3188 2479 c-35 -20 -19 -79 21 -79 48 0 68 42 35 74 -18 18 -32 20
-56 5z"/>
<path d="M4935 2480 c-4 -7 -3 -16 3 -22 14 -14 45 -2 40 15 -6 16 -34 21 -43
7z"/>
<path d="M4794 2469 c-10 -17 23 -46 37 -32 7 7 9 19 6 27 -7 18 -33 21 -43 5z"/>
<path d="M1870 2450 c0 -13 7 -20 20 -20 13 0 20 7 20 20 0 13 -7 20 -20 20
-13 0 -20 -7 -20 -20z"/>
<path d="M3040 2455 c-17 -20 -5 -62 20 -70 44 -14 80 41 48 73 -17 17 -53 15
-68 -3z"/>
<path d="M4654 2455 c-8 -19 3 -35 26 -35 19 0 30 17 23 38 -6 17 -42 15 -49
-3z"/>
<path d="M1737 2454 c-14 -15 -6 -34 14 -34 14 0 19 5 17 17 -3 18 -20 27 -31
17z"/>
<path d="M2918 2449 c-11 -6 -18 -22 -18 -39 0 -23 5 -31 25 -36 15 -4 32 -1
40 6 21 18 19 57 -4 70 -23 12 -22 12 -43 -1z"/>
<path d="M4514 2446 c-10 -26 4 -48 28 -44 17 2 23 10 23 28 0 18 -6 26 -23
28 -13 2 -25 -3 -28 -12z"/>
<path d="M4382 2438 c-17 -17 -15 -36 6 -47 25 -13 44 1 40 30 -3 27 -27 36
-46 17z"/>
<path d="M1600 2425 c0 -9 5 -15 11 -13 6 2 11 8 11 13 0 5 -5 11 -11 13 -6 2
-11 -4 -11 -13z"/>
<path d="M2770 2425 c-26 -32 13 -81 48 -59 34 22 22 74 -18 74 -10 0 -23 -7
-30 -15z"/>
<path d="M4240 2425 c-19 -23 -8 -50 22 -53 19 -2 28 2 33 18 12 39 -29 66
-55 35z"/>
<path d="M4100 2415 c-26 -31 13 -82 44 -56 19 16 21 42 4 59 -16 16 -33 15
-48 -3z"/>
<path d="M1460 2410 c0 -5 5 -10 10 -10 6 0 10 5 10 10 0 6 -4 10 -10 10 -5 0
-10 -4 -10 -10z"/>
<path d="M2625 2400 c-14 -43 44 -67 68 -29 16 26 1 49 -32 49 -21 0 -32 -6
-36 -20z"/>
<path d="M1330 2400 c0 -5 5 -10 11 -10 5 0 7 5 4 10 -3 6 -8 10 -11 10 -2 0
-4 -4 -4 -10z"/>
<path d="M2502 2401 c-8 -4 -12 -19 -10 -32 4 -33 53 -40 63 -9 11 36 -22 61
-53 41z"/>
<path d="M3954 2396 c-11 -29 1 -51 28 -54 33 -4 57 30 37 54 -15 18 -58 18
-65 0z"/>
<path d="M3814 2375 c-7 -29 10 -55 36 -55 26 0 43 26 36 55 -5 20 -13 25 -36
25 -23 0 -31 -5 -36 -25z"/>
<path d="M2356 2375 c-9 -24 4 -45 29 -45 25 0 38 21 29 45 -4 8 -16 15 -29
15 -13 0 -25 -7 -29 -15z"/>
<path d="M3682 2378 c-29 -29 -2 -72 40 -66 42 6 32 78 -11 78 -9 0 -22 -5
-29 -12z"/>
<path d="M2231 2371 c-18 -12 -9 -45 13 -49 17 -4 35 12 36 30 0 13 -36 27
-49 19z"/>
<path d="M3546 2364 c-17 -17 -20 -33 -8 -50 21 -31 72 -18 72 19 0 43 -35 60
-64 31z"/>
<path d="M5305 2370 c-3 -5 -1 -10 4 -10 6 0 11 5 11 10 0 6 -2 10 -4 10 -3 0
-8 -4 -11 -10z"/>
<path d="M5166 2361 c-4 -5 -2 -12 3 -15 5 -4 12 -2 15 3 4 5 2 12 -3 15 -5 4
-12 2 -15 -3z"/>
<path d="M2084 2346 c-8 -21 3 -36 27 -36 15 0 20 6 17 22 -4 27 -35 37 -44
14z"/>
<path d="M3400 2345 c-25 -30 14 -74 53 -59 41 15 26 74 -18 74 -12 0 -28 -7
-35 -15z"/>
<path d="M3272 2341 c-8 -4 -12 -21 -10 -37 2 -25 7 -29 32 -29 36 0 56 27 40
53 -13 19 -43 26 -62 13z"/>
<path d="M5025 2341 c-6 -11 9 -23 19 -14 9 9 7 23 -3 23 -6 0 -12 -4 -16 -9z"/>
<path d="M1950 2320 c0 -13 7 -20 20 -20 13 0 20 7 20 20 0 13 -7 20 -20 20
-13 0 -20 -7 -20 -20z"/>
<path d="M4885 2331 c-7 -12 12 -24 25 -16 11 7 4 25 -10 25 -5 0 -11 -4 -15
-9z"/>
<path d="M1817 2324 c-14 -15 -6 -34 14 -34 14 0 19 5 17 17 -3 18 -20 27 -31
17z"/>
<path d="M3124 2316 c-12 -31 1 -51 32 -54 34 -3 49 16 39 49 -8 23 -63 26
-71 5z"/>
<path d="M4742 2313 c5 -26 38 -29 38 -4 0 15 -6 21 -21 21 -14 0 -19 -5 -17
-17z"/>
<path d="M2990 2305 c-14 -17 -5 -51 16 -59 22 -8 54 11 54 32 0 38 -46 56
-70 27z"/>
<path d="M4600 2300 c0 -16 5 -21 23 -18 12 2 22 10 22 18 0 8 -10 16 -22 18
-18 3 -23 -2 -23 -18z"/>
<path d="M1686 2303 c-11 -11 -6 -23 9 -23 8 0 15 4 15 9 0 13 -16 22 -24 14z"/>
<path d="M4464 2295 c-4 -9 -2 -21 4 -27 15 -15 44 -1 40 19 -4 23 -36 29 -44
8z"/>
<path d="M2857 2294 c-15 -15 -7 -53 13 -59 27 -8 52 12 48 39 -3 21 -46 35
-61 20z"/>
<path d="M4327 2294 c-13 -13 -7 -42 10 -48 21 -8 36 6 31 30 -3 19 -29 30
-41 18z"/>
<path d="M1545 2281 c-6 -11 9 -23 19 -14 9 9 7 23 -3 23 -6 0 -12 -4 -16 -9z"/>
<path d="M2720 2276 c-27 -33 18 -72 48 -42 13 13 14 20 6 34 -15 23 -38 26
-54 8z"/>
<path d="M4184 2275 c-9 -23 3 -45 26 -45 25 0 37 25 20 45 -16 19 -39 19 -46
0z"/>
<path d="M1410 2264 c0 -8 5 -12 10 -9 6 4 8 11 5 16 -9 14 -15 11 -15 -7z"/>
<path d="M4053 2273 c-18 -7 -16 -50 2 -57 24 -9 45 4 45 29 0 18 -22 40 -33
34 -1 0 -8 -3 -14 -6z"/>
<path d="M2576 2254 c-8 -21 11 -44 35 -44 19 0 35 33 24 50 -10 16 -52 12
-59 -6z"/>
<path d="M2452 2251 c-20 -12 -10 -46 14 -49 25 -4 40 24 23 44 -13 16 -19 17
-37 5z"/>
<path d="M3904 2245 c-10 -25 4 -45 30 -45 13 0 26 7 30 15 9 25 -5 45 -30 45
-14 0 -27 -7 -30 -15z"/>
<path d="M3763 2234 c-8 -22 10 -49 32 -49 10 0 22 7 28 16 15 24 1 49 -28 49
-15 0 -28 -7 -32 -16z"/>
<path d="M2304 2225 c-8 -19 3 -35 26 -35 19 0 30 17 23 38 -6 17 -42 15 -49
-3z"/>
<path d="M3624 2226 c-12 -31 0 -51 31 -51 27 0 30 3 30 30 0 25 -4 30 -28 33
-17 2 -29 -2 -33 -12z"/>
<path d="M3492 2218 c-18 -18 -14 -46 9 -58 26 -14 49 3 49 35 0 32 -35 46
-58 23z"/>
<path d="M5250 2220 c0 -5 5 -10 10 -10 6 0 10 5 10 10 0 6 -4 10 -10 10 -5 0
-10 -4 -10 -10z"/>
<path d="M2170 2200 c0 -13 7 -20 20 -20 13 0 20 7 20 20 0 13 -7 20 -20 20
-13 0 -20 -7 -20 -20z"/>
<path d="M5110 2210 c0 -5 5 -10 10 -10 6 0 10 5 10 10 0 6 -4 10 -10 10 -5 0
-10 -4 -10 -10z"/>
<path d="M2035 2200 c-8 -14 3 -30 21 -30 8 0 14 9 14 20 0 21 -24 28 -35 10z"/>
<path d="M3345 2190 c-14 -43 44 -69 65 -31 15 29 2 51 -30 51 -20 0 -31 -6
-35 -20z"/>
<path d="M4970 2195 c0 -9 5 -15 11 -13 6 2 11 8 11 13 0 5 -5 11 -11 13 -6 2
-11 -4 -11 -13z"/>
<path d="M3214 2186 c-11 -28 1 -51 25 -51 32 0 49 28 32 49 -17 20 -50 21
-57 2z"/>
<path d="M4835 2190 c-4 -6 -3 -16 3 -22 6 -6 12 -6 17 2 4 6 3 16 -3 22 -6 6
-12 6 -17 -2z"/>
<path d="M1906 2183 c-11 -11 -6 -23 9 -23 8 0 15 4 15 9 0 13 -16 22 -24 14z"/>
<path d="M3080 2175 c-20 -25 -8 -50 25 -50 36 0 47 31 19 52 -23 17 -29 16
-44 -2z"/>
<path d="M4690 2170 c0 -15 5 -20 18 -18 9 2 17 10 17 18 0 8 -8 16 -17 18
-13 2 -18 -3 -18 -18z"/>
<path d="M1766 2173 c-11 -11 -6 -23 9 -23 8 0 15 4 15 9 0 13 -16 22 -24 14z"/>
<path d="M4557 2174 c-15 -15 -7 -45 11 -42 9 2 17 12 17 22 0 20 -16 31 -28
20z"/>
<path d="M2934 2155 c-14 -37 26 -69 53 -42 22 22 8 57 -23 57 -14 0 -27 -7
-30 -15z"/>
<path d="M1630 2150 c0 -5 5 -10 10 -10 6 0 10 5 10 10 0 6 -4 10 -10 10 -5 0
-10 -4 -10 -10z"/>
<path d="M2806 2144 c-19 -19 -17 -33 7 -48 24 -15 56 17 41 41 -15 24 -29 26
-48 7z"/>
<path d="M4405 2150 c-9 -15 4 -30 26 -30 12 0 19 7 19 20 0 21 -33 29 -45 10z"/>
<path d="M4266 2141 c-11 -18 6 -42 28 -39 29 4 29 42 -1 46 -11 2 -24 -1 -27
-7z"/>
<path d="M2664 2126 c-10 -26 4 -48 28 -44 17 2 23 10 23 28 0 18 -6 26 -23
28 -13 2 -25 -3 -28 -12z"/>
<path d="M4130 2116 c0 -21 5 -26 26 -26 21 0 25 4 22 23 -2 14 -11 23 -25 25
-19 3 -23 -1 -23 -22z"/>
<path d="M3994 2116 c-9 -24 4 -48 23 -44 12 2 18 12 18 28 0 29 -32 41 -41
16z"/>
<path d="M2524 2105 c-4 -9 -2 -21 4 -27 16 -16 47 -5 47 17 0 26 -42 34 -51
10z"/>
<path d="M3857 2113 c-4 -3 -7 -17 -7 -30 0 -18 5 -23 25 -23 14 0 28 7 31 15
11 27 -30 58 -49 38z"/>
<path d="M2397 2104 c-4 -4 -7 -16 -7 -26 0 -14 6 -19 23 -16 14 2 22 10 22
23 0 20 -25 32 -38 19z"/>
<path d="M3710 2076 c0 -30 13 -40 41 -31 31 10 21 49 -13 53 -24 3 -28 0 -28
-22z"/>
<path d="M2250 2070 c0 -16 5 -21 23 -18 12 2 22 10 22 18 0 8 -10 16 -22 18
-18 3 -23 -2 -23 -18z"/>
<path d="M3574 2076 c-10 -26 4 -48 28 -44 17 2 23 10 23 28 0 18 -6 26 -23
28 -13 2 -25 -3 -28 -12z"/>
<path d="M5195 2080 c-3 -5 -1 -10 4 -10 6 0 11 5 11 10 0 6 -2 10 -4 10 -3 0
-8 -4 -11 -10z"/>
<path d="M2127 2074 c-14 -14 -7 -35 11 -32 9 2 17 10 17 17 0 16 -18 25 -28
15z"/>
<path d="M3442 2068 c-16 -16 -15 -33 2 -47 22 -18 48 -2 44 28 -3 28 -27 38
-46 19z"/>
<path d="M5055 2060 c3 -5 8 -10 11 -10 2 0 4 5 4 10 0 6 -5 10 -11 10 -5 0
-7 -4 -4 -10z"/>
<path d="M1986 2053 c-11 -11 -6 -23 9 -23 8 0 15 4 15 9 0 13 -16 22 -24 14z"/>
<path d="M3294 2045 c-7 -18 12 -45 32 -45 16 0 33 30 27 48 -7 17 -52 15 -59
-3z"/>
<path d="M4920 2050 c0 -5 5 -10 10 -10 6 0 10 5 10 10 0 6 -4 10 -10 10 -5 0
-10 -4 -10 -10z"/>
<path d="M3164 2035 c-9 -23 3 -45 25 -45 23 0 35 28 20 46 -15 18 -38 18 -45
-1z"/>
<path d="M4777 2044 c-8 -8 1 -24 14 -24 5 0 9 7 9 15 0 15 -12 20 -23 9z"/>
<path d="M1850 2030 c0 -5 5 -10 10 -10 6 0 10 5 10 10 0 6 -4 10 -10 10 -5 0
-10 -4 -10 -10z"/>
<path d="M4635 2031 c-7 -12 12 -24 25 -16 11 7 4 25 -10 25 -5 0 -11 -4 -15
-9z"/>
<path d="M1710 2021 c0 -6 5 -13 10 -16 6 -3 10 1 10 9 0 9 -4 16 -10 16 -5 0
-10 -4 -10 -9z"/>
<path d="M3020 2005 c0 -23 4 -26 28 -23 19 2 27 9 27 23 0 14 -8 21 -27 23
-24 3 -28 0 -28 -23z"/>
<path d="M4495 2021 c-8 -15 3 -31 21 -31 9 0 14 7 12 17 -4 20 -24 28 -33 14z"/>
<path d="M2883 2004 c-3 -8 2 -23 11 -32 14 -15 18 -15 31 -1 9 9 13 23 9 32
-8 21 -43 22 -51 1z"/>
<path d="M4353 2004 c-7 -18 17 -38 31 -24 11 11 1 40 -14 40 -6 0 -13 -7 -17
-16z"/>
<path d="M1575 2000 c3 -5 8 -10 11 -10 2 0 4 5 4 10 0 6 -5 10 -11 10 -5 0
-7 -4 -4 -10z"/>
<path d="M2747 1986 c-3 -8 1 -20 9 -27 12 -10 18 -9 31 3 8 9 12 21 9 27 -10
16 -43 14 -49 -3z"/>
<path d="M4214 1989 c-9 -15 12 -33 30 -26 9 4 16 13 16 22 0 17 -35 21 -46 4z"/>
<path d="M2614 1975 c-4 -9 -2 -21 4 -27 15 -15 44 -1 40 19 -4 23 -36 29 -44
8z"/>
<path d="M4074 1979 c-8 -14 21 -43 35 -35 19 12 13 46 -8 46 -11 0 -23 -5
-27 -11z"/>
<path d="M3934 1965 c-8 -20 4 -35 27 -35 14 0 19 7 19 25 0 18 -5 25 -20 25
-11 0 -23 -7 -26 -15z"/>
<path d="M2475 1960 c-4 -7 -3 -16 3 -22 14 -14 45 -2 40 15 -6 16 -34 21 -43
7z"/>
<path d="M3800 1955 c-15 -18 -5 -35 20 -35 10 0 22 5 25 10 7 11 -12 40 -25
40 -4 0 -13 -7 -20 -15z"/>
<path d="M2340 1940 c0 -15 5 -20 18 -18 9 2 17 10 17 18 0 8 -8 16 -17 18
-13 2 -18 -3 -18 -18z"/>
<path d="M3671 1950 c-19 -11 -9 -45 14 -45 13 0 21 8 23 21 3 23 -17 37 -37
24z"/>
<path d="M2205 1931 c-7 -12 12 -24 25 -16 11 7 4 25 -10 25 -5 0 -11 -4 -15
-9z"/>
<path d="M3520 1916 c0 -21 5 -26 26 -26 21 0 25 4 22 23 -2 14 -11 23 -25 25
-19 3 -23 -1 -23 -22z"/>
<path d="M3387 1924 c-13 -13 -7 -42 10 -48 21 -8 36 6 31 30 -3 19 -29 30
-41 18z"/>
<path d="M5000 1920 c0 -5 5 -10 10 -10 6 0 10 5 10 10 0 6 -4 10 -10 10 -5 0
-10 -4 -10 -10z"/>
<path d="M2070 1910 c0 -5 5 -10 10 -10 6 0 10 5 10 10 0 6 -4 10 -10 10 -5 0
-10 -4 -10 -10z"/>
<path d="M1930 1900 c0 -5 5 -10 10 -10 6 0 10 5 10 10 0 6 -4 10 -10 10 -5 0
-10 -4 -10 -10z"/>
<path d="M3243 1894 c-3 -8 -1 -20 5 -26 16 -16 42 -2 42 22 0 24 -38 28 -47
4z"/>
<path d="M4865 1900 c3 -5 8 -10 11 -10 2 0 4 5 4 10 0 6 -5 10 -11 10 -5 0
-7 -4 -4 -10z"/>
<path d="M1795 1891 c-3 -5 -1 -12 5 -16 5 -3 10 1 10 9 0 18 -6 21 -15 7z"/>
<path d="M3104 1885 c-8 -20 4 -35 26 -35 23 0 32 13 24 34 -8 20 -43 21 -50
1z"/>
<path d="M4720 1890 c0 -5 4 -10 9 -10 6 0 13 5 16 10 3 6 -1 10 -9 10 -9 0
-16 -4 -16 -10z"/>
<path d="M2977 1883 c-15 -14 -7 -43 12 -43 26 0 36 17 21 35 -14 16 -23 19
-33 8z"/>
<path d="M4582 1879 c2 -6 8 -10 13 -10 5 0 11 4 13 10 2 6 -4 11 -13 11 -9 0
-15 -5 -13 -11z"/>
<path d="M4446 1873 c-11 -11 -6 -23 9 -23 8 0 15 4 15 9 0 13 -16 22 -24 14z"/>
<path d="M2834 1855 c-4 -9 -2 -21 3 -26 14 -14 45 1 41 20 -4 22 -37 26 -44
6z"/>
<path d="M4300 1850 c0 -15 5 -20 18 -18 9 2 17 10 17 18 0 8 -8 16 -17 18
-13 2 -18 -3 -18 -18z"/>
<path d="M2701 1851 c-19 -12 -6 -43 16 -39 10 2 18 12 18 22 0 22 -14 29 -34
17z"/>
<path d="M4167 1854 c-14 -15 -6 -34 14 -34 14 0 19 5 17 17 -3 18 -20 27 -31
17z"/>
<path d="M4031 1840 c-17 -10 -7 -40 14 -40 8 0 15 9 15 19 0 24 -12 32 -29
21z"/>
<path d="M2560 1820 c0 -15 5 -20 18 -18 9 2 17 10 17 18 0 8 -8 16 -17 18
-13 2 -18 -3 -18 -18z"/>
<path d="M2427 1824 c-14 -15 -6 -34 14 -34 14 0 19 5 17 17 -3 18 -20 27 -31
17z"/>
<path d="M3880 1810 c0 -16 5 -21 23 -18 12 2 22 10 22 18 0 8 -10 16 -22 18
-18 3 -23 -2 -23 -18z"/>
<path d="M3744 1805 c-4 -9 -2 -21 4 -27 15 -15 44 -1 40 19 -4 23 -36 29 -44
8z"/>
<path d="M2285 1801 c-7 -12 12 -24 25 -16 11 7 4 25 -10 25 -5 0 -11 -4 -15
-9z"/>
<path d="M3610 1795 c-10 -11 -10 -19 -2 -27 15 -15 44 -2 40 19 -4 23 -22 27
-38 8z"/>
<path d="M2150 1780 c0 -5 5 -10 10 -10 6 0 10 5 10 10 0 6 -4 10 -10 10 -5 0
-10 -4 -10 -10z"/>
<path d="M3470 1770 c0 -13 7 -20 20 -20 13 0 20 7 20 20 0 13 -7 20 -20 20
-13 0 -20 -7 -20 -20z"/>
<path d="M2016 1771 c-4 -5 -2 -12 3 -15 5 -4 12 -2 15 3 4 5 2 12 -3 15 -5 4
-12 2 -15 -3z"/>
<path d="M3332 1758 c2 -13 10 -23 18 -23 8 0 16 10 18 23 3 17 -2 22 -18 22
-16 0 -21 -5 -18 -22z"/>
<path d="M3201 1760 c-17 -10 -7 -40 14 -40 8 0 15 9 15 19 0 24 -12 32 -29
21z"/>
<path d="M1880 1749 c0 -5 5 -7 10 -4 6 3 10 8 10 11 0 2 -4 4 -10 4 -5 0 -10
-5 -10 -11z"/>
<path d="M4670 1744 c0 -8 5 -12 10 -9 6 4 8 11 5 16 -9 14 -15 11 -15 -7z"/>
<path d="M3055 1740 c-4 -7 -3 -16 3 -22 14 -14 45 -2 40 15 -6 16 -34 21 -43
7z"/>
<path d="M2927 1733 c-4 -3 -7 -12 -7 -20 0 -15 26 -18 34 -4 7 11 -18 33 -27
24z"/>
<path d="M4530 1730 c0 -5 5 -10 10 -10 6 0 10 5 10 10 0 6 -4 10 -10 10 -5 0
-10 -4 -10 -10z"/>
<path d="M4390 1720 c0 -5 5 -10 10 -10 6 0 10 5 10 10 0 6 -4 10 -10 10 -5 0
-10 -4 -10 -10z"/>
<path d="M2782 1703 c4 -21 33 -25 33 -3 0 8 -8 16 -18 18 -14 3 -18 -1 -15
-15z"/>
<path d="M4252 1711 c4 -13 18 -16 19 -4 0 4 -5 9 -11 12 -7 2 -11 -2 -8 -8z"/>
<path d="M4116 1703 c-11 -11 -6 -23 9 -23 8 0 15 4 15 9 0 13 -16 22 -24 14z"/>
<path d="M2647 1694 c-8 -8 1 -24 14 -24 5 0 9 7 9 15 0 15 -12 20 -23 9z"/>
<path d="M3975 1690 c-4 -6 -3 -16 3 -22 6 -6 12 -6 17 2 4 6 3 16 -3 22 -6 6
-12 6 -17 -2z"/>
<path d="M2510 1675 c0 -9 5 -15 11 -13 6 2 11 8 11 13 0 5 -5 11 -11 13 -6 2
-11 -4 -11 -13z"/>
<path d="M2375 1669 c-10 -15 3 -25 16 -12 7 7 7 13 1 17 -6 3 -14 1 -17 -5z"/>
<path d="M3830 1665 c0 -8 9 -15 20 -15 11 0 20 7 20 15 0 8 -9 15 -20 15 -11
0 -20 -7 -20 -15z"/>
<path d="M3692 1653 c2 -10 10 -18 18 -18 8 0 16 8 18 18 2 12 -3 17 -18 17
-15 0 -20 -5 -18 -17z"/>
<path d="M2235 1650 c-3 -5 1 -10 10 -10 9 0 13 5 10 10 -3 6 -8 10 -10 10 -2
0 -7 -4 -10 -10z"/>
<path d="M3557 1654 c-14 -15 -6 -34 14 -34 14 0 19 5 17 17 -3 18 -20 27 -31
17z"/>
<path d="M2100 1629 c0 -5 5 -7 10 -4 6 3 10 8 10 11 0 2 -4 4 -10 4 -5 0 -10
-5 -10 -11z"/>
<path d="M3414 1629 c-7 -12 15 -31 28 -23 4 3 8 12 8 20 0 17 -26 19 -36 3z"/>
<path d="M1960 1619 c0 -5 5 -7 10 -4 6 3 10 8 10 11 0 2 -4 4 -10 4 -5 0 -10
-5 -10 -11z"/>
<path d="M3280 1610 c0 -11 7 -20 15 -20 8 0 15 9 15 20 0 11 -7 20 -15 20 -8
0 -15 -9 -15 -20z"/>
<path d="M3143 1605 c-7 -20 2 -29 21 -22 9 4 13 13 10 22 -8 19 -23 19 -31 0z"/>
<path d="M4610 1600 c0 -5 5 -10 10 -10 6 0 10 5 10 10 0 6 -4 10 -10 10 -5 0
-10 -4 -10 -10z"/>
<path d="M3005 1591 c-7 -12 12 -24 25 -16 11 7 4 25 -10 25 -5 0 -11 -4 -15
-9z"/>
<path d="M4475 1590 c-3 -5 -1 -10 4 -10 6 0 11 5 11 10 0 6 -2 10 -4 10 -3 0
-8 -4 -11 -10z"/>
<path d="M2870 1575 c0 -16 16 -20 24 -6 3 5 -1 11 -9 15 -9 3 -15 0 -15 -9z"/>
<path d="M4336 1581 c-4 -5 -2 -12 3 -15 5 -4 12 -2 15 3 4 5 2 12 -3 15 -5 4
-12 2 -15 -3z"/>
<path d="M2732 1561 c4 -13 18 -16 19 -4 0 4 -5 9 -11 12 -7 2 -11 -2 -8 -8z"/>
<path d="M4200 1560 c0 -5 5 -10 10 -10 6 0 10 5 10 10 0 6 -4 10 -10 10 -5 0
-10 -4 -10 -10z"/>
<path d="M2596 1551 c-4 -5 -2 -12 3 -15 5 -4 12 -2 15 3 4 5 2 12 -3 15 -5 4
-12 2 -15 -3z"/>
<path d="M4055 1551 c-6 -11 9 -23 19 -14 9 9 7 23 -3 23 -6 0 -12 -4 -16 -9z"/>
<path d="M3920 1535 c0 -9 5 -15 11 -13 6 2 11 8 11 13 0 5 -5 11 -11 13 -6 2
-11 -4 -11 -13z"/>
<path d="M2460 1530 c0 -5 5 -10 10 -10 6 0 10 5 10 10 0 6 -4 10 -10 10 -5 0
-10 -4 -10 -10z"/>
<path d="M2320 1520 c0 -5 5 -10 11 -10 5 0 7 5 4 10 -3 6 -8 10 -11 10 -2 0
-4 -4 -4 -10z"/>
<path d="M3780 1520 c0 -5 4 -10 9 -10 6 0 13 5 16 10 3 6 -1 10 -9 10 -9 0
-16 -4 -16 -10z"/>
<path d="M3642 1511 c4 -13 18 -16 19 -4 0 4 -5 9 -11 12 -7 2 -11 -2 -8 -8z"/>
<path d="M3506 1502 c-3 -6 -1 -14 5 -17 15 -10 25 3 12 16 -7 7 -13 7 -17 1z"/>
<path d="M3365 1480 c-3 -5 1 -10 9 -10 9 0 16 5 16 10 0 6 -4 10 -9 10 -6 0
-13 -4 -16 -10z"/>
<path d="M3227 1474 c-8 -8 1 -24 14 -24 5 0 9 7 9 15 0 15 -12 20 -23 9z"/>
<path d="M3096 1461 c-4 -7 -5 -15 -2 -18 9 -9 19 4 14 18 -4 11 -6 11 -12 0z"/>
<path d="M2950 1440 c0 -5 5 -10 10 -10 6 0 10 5 10 10 0 6 -4 10 -10 10 -5 0
-10 -4 -10 -10z"/>
<path d="M4420 1439 c0 -5 5 -7 10 -4 6 3 10 8 10 11 0 2 -4 4 -10 4 -5 0 -10
-5 -10 -11z"/>
<path d="M2816 1431 c-4 -5 -2 -12 3 -15 5 -4 12 -2 15 3 4 5 2 12 -3 15 -5 4
-12 2 -15 -3z"/>
<path d="M4280 1430 c0 -5 5 -10 10 -10 6 0 10 5 10 10 0 6 -4 10 -10 10 -5 0
-10 -4 -10 -10z"/>
<path d="M2680 1409 c0 -5 5 -7 10 -4 6 3 10 8 10 11 0 2 -4 4 -10 4 -5 0 -10
-5 -10 -11z"/>
<path d="M2540 1400 c0 -5 5 -10 10 -10 6 0 10 5 10 10 0 6 -4 10 -10 10 -5 0
-10 -4 -10 -10z"/>
<path d="M4005 1400 c3 -5 8 -10 11 -10 2 0 4 5 4 10 0 6 -5 10 -11 10 -5 0
-7 -4 -4 -10z"/>
<path d="M3865 1390 c-3 -5 -1 -10 4 -10 6 0 11 5 11 10 0 6 -2 10 -4 10 -3 0
-8 -4 -11 -10z"/>
<path d="M3726 1381 c-4 -5 -2 -12 3 -15 5 -4 12 -2 15 3 4 5 2 12 -3 15 -5 4
-12 2 -15 -3z"/>
<path d="M3590 1360 c0 -5 5 -10 10 -10 6 0 10 5 10 10 0 6 -4 10 -10 10 -5 0
-10 -4 -10 -10z"/>
<path d="M3450 1350 c0 -5 5 -10 10 -10 6 0 10 5 10 10 0 6 -4 10 -10 10 -5 0
-10 -4 -10 -10z"/>
<path d="M3315 1341 c-3 -5 -1 -12 5 -16 5 -3 10 1 10 9 0 18 -6 21 -15 7z"/>
<path d="M3175 1320 c3 -5 8 -10 11 -10 2 0 4 5 4 10 0 6 -5 10 -11 10 -5 0
-7 -4 -4 -10z"/>
<path d="M3035 1310 c-3 -5 1 -10 10 -10 9 0 13 5 10 10 -3 6 -8 10 -10 10 -2
0 -7 -4 -10 -10z"/>
<path d="M2900 1289 c0 -5 5 -7 10 -4 6 3 10 8 10 11 0 2 -4 4 -10 4 -5 0 -10
-5 -10 -11z"/>
<path d="M2760 1280 c0 -5 5 -10 10 -10 6 0 10 5 10 10 0 6 -4 10 -10 10 -5 0
-10 -4 -10 -10z"/>
<path d="M3950 1260 c0 -5 5 -10 11 -10 5 0 7 5 4 10 -3 6 -8 10 -11 10 -2 0
-4 -4 -4 -10z"/>
<path d="M3670 1230 c0 -5 5 -10 10 -10 6 0 10 5 10 10 0 6 -4 10 -10 10 -5 0
-10 -4 -10 -10z"/>
<path d="M3535 1220 c-3 -5 -1 -10 4 -10 6 0 11 5 11 10 0 6 -2 10 -4 10 -3 0
-8 -4 -11 -10z"/>
</g>
</svg>
